<svg width="801" height="700" viewBox="0 0 801 700" fill="none" xmlns="http://www.w3.org/2000/svg">
<path d="M750.3 299.99C722.71 299.99 700.34 277.6 700.34 249.99C700.34 222.38 722.71 199.99 750.3 199.99C777.89 199.99 800.26 222.38 800.26 249.99C800.26 277.6 777.89 299.99 750.3 299.99Z" fill="#3D4671"/>
<path d="M750.3 400.01C722.71 400.01 700.34 377.62 700.34 350.01C700.34 322.4 722.71 300.01 750.3 300.01C777.89 300.01 800.26 322.4 800.26 350.01C800.26 377.62 777.89 400.01 750.3 400.01Z" fill="#3D4671"/>
<path d="M750.3 500.01C722.71 500.01 700.34 477.62 700.34 450.01C700.34 422.4 722.71 400.01 750.3 400.01C777.89 400.01 800.26 422.4 800.26 450.01C800.25 477.62 777.89 500.01 750.3 500.01Z" fill="#3D4671"/>
<path d="M750.3 599.97C722.71 599.97 700.34 577.58 700.34 549.97C700.34 522.36 722.71 499.97 750.3 499.97C777.89 499.97 800.26 522.36 800.26 549.97C800.25 577.59 777.89 599.97 750.3 599.97Z" fill="#3D4671"/>
<path d="M650.38 199.99C622.79 199.99 600.42 177.6 600.42 149.99C600.42 122.38 622.79 99.99 650.38 99.99C677.97 99.99 700.34 122.38 700.34 149.99C700.34 177.6 677.98 199.99 650.38 199.99Z" fill="#3D4671"/>
<path d="M650.38 299.99C622.79 299.99 600.42 277.6 600.42 249.99C600.42 222.38 622.79 199.99 650.38 199.99C677.97 199.99 700.34 222.38 700.34 249.99C700.34 277.6 677.98 299.99 650.38 299.99Z" fill="#3D4671"/>
<path d="M650.38 400.01C622.79 400.01 600.42 377.62 600.42 350.01C600.42 322.4 622.79 300.01 650.38 300.01C677.97 300.01 700.34 322.4 700.34 350.01C700.34 377.62 677.98 400.01 650.38 400.01Z" fill="#3D4671"/>
<path d="M650.38 500.01C622.79 500.01 600.42 477.62 600.42 450.01C600.42 422.4 622.79 400.01 650.38 400.01C677.97 400.01 700.34 422.4 700.34 450.01C700.34 477.62 677.98 500.01 650.38 500.01Z" fill="#3D4671"/>
<path d="M650.38 599.97C622.79 599.97 600.42 577.58 600.42 549.97C600.42 522.36 622.79 499.97 650.38 499.97C677.97 499.97 700.34 522.36 700.34 549.97C700.34 577.59 677.98 599.97 650.38 599.97Z" fill="#3D4671"/>
<path d="M650.38 700C622.79 700 600.42 677.61 600.42 650C600.42 622.39 622.79 600 650.38 600C677.97 600 700.34 622.39 700.34 650C700.34 677.61 677.98 700 650.38 700Z" fill="#3D4671"/>
<path d="M550.47 199.99C522.88 199.99 500.51 177.6 500.51 149.99C500.51 122.38 522.88 99.99 550.47 99.99C578.06 99.99 600.43 122.38 600.43 149.99C600.43 177.6 578.06 199.99 550.47 199.99Z" fill="#3D4671"/>
<path d="M550.47 299.99C522.88 299.99 500.51 277.6 500.51 249.99C500.51 222.38 522.88 199.99 550.47 199.99C578.06 199.99 600.43 222.38 600.43 249.99C600.43 277.6 578.06 299.99 550.47 299.99Z" fill="#3D4671"/>
<path d="M550.47 400.01C522.88 400.01 500.51 377.62 500.51 350.01C500.51 322.4 522.88 300.01 550.47 300.01C578.06 300.01 600.43 322.4 600.43 350.01C600.43 377.62 578.06 400.01 550.47 400.01Z" fill="#3D4671"/>
<path d="M550.47 500.01C522.88 500.01 500.51 477.62 500.51 450.01C500.51 422.4 522.88 400.01 550.47 400.01C578.06 400.01 600.43 422.4 600.43 450.01C600.43 477.62 578.06 500.01 550.47 500.01Z" fill="#3D4671"/>
<path d="M550.47 599.97C522.88 599.97 500.51 577.58 500.51 549.97C500.51 522.36 522.88 499.97 550.47 499.97C578.06 499.97 600.43 522.36 600.43 549.97C600.43 577.59 578.06 599.97 550.47 599.97Z" fill="#3D4671"/>
<path d="M550.47 700C522.88 700 500.51 677.61 500.51 650C500.51 622.39 522.88 600 550.47 600C578.06 600 600.43 622.39 600.43 650C600.43 677.61 578.06 700 550.47 700Z" fill="#3D4671"/>
<path d="M450.53 100C422.94 100 400.57 77.61 400.57 50C400.57 22.39 422.94 0 450.53 0C478.12 0 500.49 22.39 500.49 50C500.49 77.61 478.12 100 450.53 100Z" fill="#3D4671"/>
<path d="M450.53 199.99C422.94 199.99 400.57 177.6 400.57 149.99C400.57 122.38 422.94 99.99 450.53 99.99C478.12 99.99 500.49 122.38 500.49 149.99C500.49 177.6 478.12 199.99 450.53 199.99Z" fill="#3D4671"/>
<path d="M450.53 299.99C422.94 299.99 400.57 277.6 400.57 249.99C400.57 222.38 422.94 199.99 450.53 199.99C478.12 199.99 500.49 222.38 500.49 249.99C500.49 277.6 478.12 299.99 450.53 299.99Z" fill="#3D4671"/>
<path d="M450.53 400.01C422.94 400.01 400.57 377.62 400.57 350.01C400.57 322.4 422.94 300.01 450.53 300.01C478.12 300.01 500.49 322.4 500.49 350.01C500.49 377.62 478.12 400.01 450.53 400.01Z" fill="#3D4671"/>
<path d="M450.53 500.01C422.94 500.01 400.57 477.62 400.57 450.01C400.57 422.4 422.94 400.01 450.53 400.01C478.12 400.01 500.49 422.4 500.49 450.01C500.49 477.62 478.12 500.01 450.53 500.01Z" fill="#3D4671"/>
<path d="M450.53 599.97C422.94 599.97 400.57 577.58 400.57 549.97C400.57 522.36 422.94 499.97 450.53 499.97C478.12 499.97 500.49 522.36 500.49 549.97C500.49 577.59 478.12 599.97 450.53 599.97Z" fill="#3D4671"/>
<path d="M450.53 700C422.94 700 400.57 677.61 400.57 650C400.57 622.39 422.94 600 450.53 600C478.12 600 500.49 622.39 500.49 650C500.49 677.61 478.12 700 450.53 700Z" fill="#3D4671"/>
<path d="M350.62 100C323.03 100 300.66 77.61 300.66 50C300.66 22.39 323.03 0 350.62 0C378.21 0 400.58 22.39 400.58 50C400.58 77.61 378.21 100 350.62 100Z" fill="#3D4671"/>
<path d="M350.62 199.99C323.03 199.99 300.66 177.6 300.66 149.99C300.66 122.38 323.03 99.99 350.62 99.99C378.21 99.99 400.58 122.38 400.58 149.99C400.58 177.6 378.21 199.99 350.62 199.99Z" fill="#3D4671"/>
<path d="M350.62 299.99C323.03 299.99 300.66 277.6 300.66 249.99C300.66 222.38 323.03 199.99 350.62 199.99C378.21 199.99 400.58 222.38 400.58 249.99C400.58 277.6 378.21 299.99 350.62 299.99Z" fill="#3D4671"/>
<path d="M350.62 400.01C323.03 400.01 300.66 377.62 300.66 350.01C300.66 322.4 323.03 300.01 350.62 300.01C378.21 300.01 400.58 322.4 400.58 350.01C400.58 377.62 378.21 400.01 350.62 400.01Z" fill="#3D4671"/>
<path d="M350.62 500.01C323.03 500.01 300.66 477.62 300.66 450.01C300.66 422.4 323.03 400.01 350.62 400.01C378.21 400.01 400.58 422.4 400.58 450.01C400.58 477.62 378.21 500.01 350.62 500.01Z" fill="#3D4671"/>
<path d="M350.62 599.97C323.03 599.97 300.66 577.58 300.66 549.97C300.66 522.36 323.03 499.97 350.62 499.97C378.21 499.97 400.58 522.36 400.58 549.97C400.58 577.59 378.21 599.97 350.62 599.97Z" fill="#3D4671"/>
<path d="M250.68 100C223.09 100 200.72 77.61 200.72 50C200.72 22.39 223.09 0 250.68 0C278.27 0 300.64 22.39 300.64 50C300.64 77.61 278.27 100 250.68 100Z" fill="#3D4671"/>
<path d="M250.68 199.99C223.09 199.99 200.72 177.6 200.72 149.99C200.72 122.38 223.09 99.99 250.68 99.99C278.27 99.99 300.64 122.38 300.64 149.99C300.64 177.6 278.27 199.99 250.68 199.99Z" fill="#3D4671"/>
<path d="M250.68 299.99C223.09 299.99 200.72 277.6 200.72 249.99C200.72 222.38 223.09 199.99 250.68 199.99C278.27 199.99 300.64 222.38 300.64 249.99C300.64 277.6 278.27 299.99 250.68 299.99Z" fill="#3D4671"/>
<path d="M250.68 400.01C223.09 400.01 200.72 377.62 200.72 350.01C200.72 322.4 223.09 300.01 250.68 300.01C278.27 300.01 300.64 322.4 300.64 350.01C300.64 377.62 278.27 400.01 250.68 400.01Z" fill="#3D4671"/>
<path d="M250.68 500.01C223.09 500.01 200.72 477.62 200.72 450.01C200.72 422.4 223.09 400.01 250.68 400.01C278.27 400.01 300.64 422.4 300.64 450.01C300.64 477.62 278.27 500.01 250.68 500.01Z" fill="#3D4671"/>
<path d="M250.68 599.97C223.09 599.97 200.72 577.58 200.72 549.97C200.72 522.36 223.09 499.97 250.68 499.97C278.27 499.97 300.64 522.36 300.64 549.97C300.64 577.59 278.27 599.97 250.68 599.97Z" fill="#3D4671"/>
<path d="M150.76 100C123.17 100 100.8 77.61 100.8 50C100.8 22.39 123.17 0 150.76 0C178.35 0 200.72 22.39 200.72 50C200.72 77.61 178.36 100 150.76 100Z" fill="#3D4671"/>
<path d="M150.76 199.99C123.17 199.99 100.8 177.6 100.8 149.99C100.8 122.38 123.17 99.99 150.76 99.99C178.35 99.99 200.72 122.38 200.72 149.99C200.72 177.6 178.36 199.99 150.76 199.99Z" fill="#3D4671"/>
<path d="M150.76 299.99C123.17 299.99 100.8 277.6 100.8 249.99C100.8 222.38 123.17 199.99 150.76 199.99C178.35 199.99 200.72 222.38 200.72 249.99C200.72 277.6 178.36 299.99 150.76 299.99Z" fill="#3D4671"/>
<path d="M150.76 400.01C123.17 400.01 100.8 377.62 100.8 350.01C100.8 322.4 123.17 300.01 150.76 300.01C178.35 300.01 200.72 322.4 200.72 350.01C200.72 377.62 178.36 400.01 150.76 400.01Z" fill="#3D4671"/>
<path d="M50.88 199.99C23.29 199.99 0.920044 177.6 0.920044 149.99C0.920044 122.38 23.29 99.99 50.88 99.99C78.47 99.99 100.84 122.38 100.84 149.99C100.84 177.6 78.47 199.99 50.88 199.99Z" fill="#3D4671"/>
<path d="M50.88 299.99C23.29 299.99 0.920044 277.6 0.920044 249.99C0.920044 222.38 23.29 199.99 50.88 199.99C78.47 199.99 100.84 222.38 100.84 249.99C100.84 277.6 78.47 299.99 50.88 299.99Z" fill="#3D4671"/>
</svg>
