<svg width="800" height="700" viewBox="0 0 800 700" fill="none" xmlns="http://www.w3.org/2000/svg">
<path d="M749.38 299.99C721.79 299.99 699.42 277.6 699.42 249.99C699.42 222.38 721.79 199.99 749.38 199.99C776.97 199.99 799.34 222.38 799.34 249.99C799.34 277.6 776.97 299.99 749.38 299.99Z" fill="#7986C5"/>
<path d="M749.38 400.01C721.79 400.01 699.42 377.62 699.42 350.01C699.42 322.4 721.79 300.01 749.38 300.01C776.97 300.01 799.34 322.4 799.34 350.01C799.34 377.62 776.97 400.01 749.38 400.01Z" fill="#7986C5"/>
<path d="M749.38 500.01C721.79 500.01 699.42 477.62 699.42 450.01C699.42 422.4 721.79 400.01 749.38 400.01C776.97 400.01 799.34 422.4 799.34 450.01C799.33 477.62 776.97 500.01 749.38 500.01Z" fill="#7986C5"/>
<path d="M749.38 599.97C721.79 599.97 699.42 577.58 699.42 549.97C699.42 522.36 721.79 499.97 749.38 499.97C776.97 499.97 799.34 522.36 799.34 549.97C799.33 577.59 776.97 599.97 749.38 599.97Z" fill="#7986C5"/>
<path d="M649.46 199.99C621.87 199.99 599.5 177.6 599.5 149.99C599.5 122.38 621.87 99.99 649.46 99.99C677.05 99.99 699.42 122.38 699.42 149.99C699.42 177.6 677.06 199.99 649.46 199.99Z" fill="#7986C5"/>
<path d="M649.46 299.99C621.87 299.99 599.5 277.6 599.5 249.99C599.5 222.38 621.87 199.99 649.46 199.99C677.05 199.99 699.42 222.38 699.42 249.99C699.42 277.6 677.06 299.99 649.46 299.99Z" fill="#7986C5"/>
<path d="M649.46 400.01C621.87 400.01 599.5 377.62 599.5 350.01C599.5 322.4 621.87 300.01 649.46 300.01C677.05 300.01 699.42 322.4 699.42 350.01C699.42 377.62 677.06 400.01 649.46 400.01Z" fill="#7986C5"/>
<path d="M649.46 500.01C621.87 500.01 599.5 477.62 599.5 450.01C599.5 422.4 621.87 400.01 649.46 400.01C677.05 400.01 699.42 422.4 699.42 450.01C699.42 477.62 677.06 500.01 649.46 500.01Z" fill="#7986C5"/>
<path d="M649.46 599.97C621.87 599.97 599.5 577.58 599.5 549.97C599.5 522.36 621.87 499.97 649.46 499.97C677.05 499.97 699.42 522.36 699.42 549.97C699.42 577.59 677.06 599.97 649.46 599.97Z" fill="#7986C5"/>
<path d="M649.46 700C621.87 700 599.5 677.61 599.5 650C599.5 622.39 621.87 600 649.46 600C677.05 600 699.42 622.39 699.42 650C699.42 677.61 677.06 700 649.46 700Z" fill="#7986C5"/>
<path d="M549.55 199.99C521.96 199.99 499.59 177.6 499.59 149.99C499.59 122.38 521.96 99.99 549.55 99.99C577.14 99.99 599.51 122.38 599.51 149.99C599.51 177.6 577.14 199.99 549.55 199.99Z" fill="#7986C5"/>
<path d="M549.55 299.99C521.96 299.99 499.59 277.6 499.59 249.99C499.59 222.38 521.96 199.99 549.55 199.99C577.14 199.99 599.51 222.38 599.51 249.99C599.51 277.6 577.14 299.99 549.55 299.99Z" fill="#7986C5"/>
<path d="M549.55 400.01C521.96 400.01 499.59 377.62 499.59 350.01C499.59 322.4 521.96 300.01 549.55 300.01C577.14 300.01 599.51 322.4 599.51 350.01C599.51 377.62 577.14 400.01 549.55 400.01Z" fill="#7986C5"/>
<path d="M549.55 500.01C521.96 500.01 499.59 477.62 499.59 450.01C499.59 422.4 521.96 400.01 549.55 400.01C577.14 400.01 599.51 422.4 599.51 450.01C599.51 477.62 577.14 500.01 549.55 500.01Z" fill="#7986C5"/>
<path d="M549.55 599.97C521.96 599.97 499.59 577.58 499.59 549.97C499.59 522.36 521.96 499.97 549.55 499.97C577.14 499.97 599.51 522.36 599.51 549.97C599.51 577.59 577.14 599.97 549.55 599.97Z" fill="#7986C5"/>
<path d="M549.55 700C521.96 700 499.59 677.61 499.59 650C499.59 622.39 521.96 600 549.55 600C577.14 600 599.51 622.39 599.51 650C599.51 677.61 577.14 700 549.55 700Z" fill="#7986C5"/>
<path d="M449.61 100C422.02 100 399.65 77.61 399.65 50C399.65 22.39 422.02 0 449.61 0C477.2 0 499.57 22.39 499.57 50C499.57 77.61 477.2 100 449.61 100Z" fill="#7986C5"/>
<path d="M449.61 199.99C422.02 199.99 399.65 177.6 399.65 149.99C399.65 122.38 422.02 99.99 449.61 99.99C477.2 99.99 499.57 122.38 499.57 149.99C499.57 177.6 477.2 199.99 449.61 199.99Z" fill="#7986C5"/>
<path d="M449.61 299.99C422.02 299.99 399.65 277.6 399.65 249.99C399.65 222.38 422.02 199.99 449.61 199.99C477.2 199.99 499.57 222.38 499.57 249.99C499.57 277.6 477.2 299.99 449.61 299.99Z" fill="#7986C5"/>
<path d="M449.61 400.01C422.02 400.01 399.65 377.62 399.65 350.01C399.65 322.4 422.02 300.01 449.61 300.01C477.2 300.01 499.57 322.4 499.57 350.01C499.57 377.62 477.2 400.01 449.61 400.01Z" fill="#7986C5"/>
<path d="M449.61 500.01C422.02 500.01 399.65 477.62 399.65 450.01C399.65 422.4 422.02 400.01 449.61 400.01C477.2 400.01 499.57 422.4 499.57 450.01C499.57 477.62 477.2 500.01 449.61 500.01Z" fill="#7986C5"/>
<path d="M449.61 599.97C422.02 599.97 399.65 577.58 399.65 549.97C399.65 522.36 422.02 499.97 449.61 499.97C477.2 499.97 499.57 522.36 499.57 549.97C499.57 577.59 477.2 599.97 449.61 599.97Z" fill="#7986C5"/>
<path d="M449.61 700C422.02 700 399.65 677.61 399.65 650C399.65 622.39 422.02 600 449.61 600C477.2 600 499.57 622.39 499.57 650C499.57 677.61 477.2 700 449.61 700Z" fill="#7986C5"/>
<path d="M349.7 100C322.11 100 299.74 77.61 299.74 50C299.74 22.39 322.11 0 349.7 0C377.29 0 399.66 22.39 399.66 50C399.66 77.61 377.29 100 349.7 100Z" fill="#7986C5"/>
<path d="M349.7 199.99C322.11 199.99 299.74 177.6 299.74 149.99C299.74 122.38 322.11 99.99 349.7 99.99C377.29 99.99 399.66 122.38 399.66 149.99C399.66 177.6 377.29 199.99 349.7 199.99Z" fill="#7986C5"/>
<path d="M349.7 299.99C322.11 299.99 299.74 277.6 299.74 249.99C299.74 222.38 322.11 199.99 349.7 199.99C377.29 199.99 399.66 222.38 399.66 249.99C399.66 277.6 377.29 299.99 349.7 299.99Z" fill="#7986C5"/>
<path d="M349.7 400.01C322.11 400.01 299.74 377.62 299.74 350.01C299.74 322.4 322.11 300.01 349.7 300.01C377.29 300.01 399.66 322.4 399.66 350.01C399.66 377.62 377.29 400.01 349.7 400.01Z" fill="#7986C5"/>
<path d="M349.7 500.01C322.11 500.01 299.74 477.62 299.74 450.01C299.74 422.4 322.11 400.01 349.7 400.01C377.29 400.01 399.66 422.4 399.66 450.01C399.66 477.62 377.29 500.01 349.7 500.01Z" fill="#7986C5"/>
<path d="M349.7 599.97C322.11 599.97 299.74 577.58 299.74 549.97C299.74 522.36 322.11 499.97 349.7 499.97C377.29 499.97 399.66 522.36 399.66 549.97C399.66 577.59 377.29 599.97 349.7 599.97Z" fill="#7986C5"/>
<path d="M249.76 100C222.17 100 199.8 77.61 199.8 50C199.8 22.39 222.17 0 249.76 0C277.35 0 299.72 22.39 299.72 50C299.72 77.61 277.35 100 249.76 100Z" fill="#7986C5"/>
<path d="M249.76 199.99C222.17 199.99 199.8 177.6 199.8 149.99C199.8 122.38 222.17 99.99 249.76 99.99C277.35 99.99 299.72 122.38 299.72 149.99C299.72 177.6 277.35 199.99 249.76 199.99Z" fill="#7986C5"/>
<path d="M249.76 299.99C222.17 299.99 199.8 277.6 199.8 249.99C199.8 222.38 222.17 199.99 249.76 199.99C277.35 199.99 299.72 222.38 299.72 249.99C299.72 277.6 277.35 299.99 249.76 299.99Z" fill="#7986C5"/>
<path d="M249.76 400.01C222.17 400.01 199.8 377.62 199.8 350.01C199.8 322.4 222.17 300.01 249.76 300.01C277.35 300.01 299.72 322.4 299.72 350.01C299.72 377.62 277.35 400.01 249.76 400.01Z" fill="#7986C5"/>
<path d="M249.76 500.01C222.17 500.01 199.8 477.62 199.8 450.01C199.8 422.4 222.17 400.01 249.76 400.01C277.35 400.01 299.72 422.4 299.72 450.01C299.72 477.62 277.35 500.01 249.76 500.01Z" fill="#7986C5"/>
<path d="M249.76 599.97C222.17 599.97 199.8 577.58 199.8 549.97C199.8 522.36 222.17 499.97 249.76 499.97C277.35 499.97 299.72 522.36 299.72 549.97C299.72 577.59 277.35 599.97 249.76 599.97Z" fill="#7986C5"/>
<path d="M149.84 100C122.25 100 99.8799 77.61 99.8799 50C99.8799 22.39 122.25 0 149.84 0C177.43 0 199.8 22.39 199.8 50C199.8 77.61 177.44 100 149.84 100Z" fill="#7986C5"/>
<path d="M149.84 199.99C122.25 199.99 99.8799 177.6 99.8799 149.99C99.8799 122.38 122.25 99.99 149.84 99.99C177.43 99.99 199.8 122.38 199.8 149.99C199.8 177.6 177.44 199.99 149.84 199.99Z" fill="#7986C5"/>
<path d="M149.84 299.99C122.25 299.99 99.8799 277.6 99.8799 249.99C99.8799 222.38 122.25 199.99 149.84 199.99C177.43 199.99 199.8 222.38 199.8 249.99C199.8 277.6 177.44 299.99 149.84 299.99Z" fill="#7986C5"/>
<path d="M149.84 400.01C122.25 400.01 99.8799 377.62 99.8799 350.01C99.8799 322.4 122.25 300.01 149.84 300.01C177.43 300.01 199.8 322.4 199.8 350.01C199.8 377.62 177.44 400.01 149.84 400.01Z" fill="#7986C5"/>
<path d="M49.96 199.99C22.37 199.99 0 177.6 0 149.99C0 122.38 22.37 99.99 49.96 99.99C77.55 99.99 99.9199 122.38 99.9199 149.99C99.9199 177.6 77.55 199.99 49.96 199.99Z" fill="#7986C5"/>
<path d="M49.96 299.99C22.37 299.99 0 277.6 0 249.99C0 222.38 22.37 199.99 49.96 199.99C77.55 199.99 99.9199 222.38 99.9199 249.99C99.9199 277.6 77.55 299.99 49.96 299.99Z" fill="#7986C5"/>
</svg>
