<svg width="2273" height="700" viewBox="0 0 2273 700" fill="none" xmlns="http://www.w3.org/2000/svg">
<path d="M49.96 299.99C77.55 299.99 99.92 277.6 99.92 249.99C99.92 222.38 77.55 199.99 49.96 199.99C22.37 199.99 0 222.38 0 249.99C0 277.6 22.36 299.99 49.96 299.99Z" fill="white"/>
<path d="M49.96 400.01C77.55 400.01 99.92 377.62 99.92 350.01C99.92 322.4 77.55 300.01 49.96 300.01C22.37 300.01 0 322.4 0 350.01C0 377.62 22.36 400.01 49.96 400.01Z" fill="white"/>
<path d="M49.96 500.01C77.55 500.01 99.92 477.62 99.92 450.01C99.92 422.4 77.55 400.01 49.96 400.01C22.37 400.01 0 422.4 0 450.01C0 477.62 22.36 500.01 49.96 500.01Z" fill="white"/>
<path d="M49.96 599.97C77.55 599.97 99.92 577.58 99.92 549.97C99.92 522.36 77.55 499.97 49.96 499.97C22.37 499.97 0 522.36 0 549.97C0 577.59 22.36 599.97 49.96 599.97Z" fill="white"/>
<path d="M149.87 199.99C177.46 199.99 199.83 177.6 199.83 149.99C199.83 122.38 177.46 99.99 149.87 99.99C122.28 99.99 99.91 122.38 99.91 149.99C99.91 177.6 122.28 199.99 149.87 199.99Z" fill="white"/>
<path d="M149.87 299.99C177.46 299.99 199.83 277.6 199.83 249.99C199.83 222.38 177.46 199.99 149.87 199.99C122.28 199.99 99.91 222.38 99.91 249.99C99.91 277.6 122.28 299.99 149.87 299.99Z" fill="white"/>
<path d="M149.87 400.01C177.46 400.01 199.83 377.62 199.83 350.01C199.83 322.4 177.46 300.01 149.87 300.01C122.28 300.01 99.91 322.4 99.91 350.01C99.91 377.62 122.28 400.01 149.87 400.01Z" fill="white"/>
<path d="M149.87 500.01C177.46 500.01 199.83 477.62 199.83 450.01C199.83 422.4 177.46 400.01 149.87 400.01C122.28 400.01 99.91 422.4 99.91 450.01C99.91 477.62 122.28 500.01 149.87 500.01Z" fill="white"/>
<path d="M149.87 599.97C177.46 599.97 199.83 577.58 199.83 549.97C199.83 522.36 177.46 499.97 149.87 499.97C122.28 499.97 99.91 522.36 99.91 549.97C99.91 577.59 122.28 599.97 149.87 599.97Z" fill="white"/>
<path d="M149.87 700C177.46 700 199.83 677.61 199.83 650C199.83 622.39 177.46 600 149.87 600C122.28 600 99.91 622.39 99.91 650C99.91 677.61 122.28 700 149.87 700Z" fill="white"/>
<path d="M249.78 199.99C277.37 199.99 299.74 177.6 299.74 149.99C299.74 122.38 277.37 99.99 249.78 99.99C222.19 99.99 199.82 122.38 199.82 149.99C199.82 177.6 222.19 199.99 249.78 199.99Z" fill="white"/>
<path d="M249.78 299.99C277.37 299.99 299.74 277.6 299.74 249.99C299.74 222.38 277.37 199.99 249.78 199.99C222.19 199.99 199.82 222.38 199.82 249.99C199.82 277.6 222.19 299.99 249.78 299.99Z" fill="white"/>
<path d="M249.78 400.01C277.37 400.01 299.74 377.62 299.74 350.01C299.74 322.4 277.37 300.01 249.78 300.01C222.19 300.01 199.82 322.4 199.82 350.01C199.82 377.62 222.19 400.01 249.78 400.01Z" fill="white"/>
<path d="M249.78 500.01C277.37 500.01 299.74 477.62 299.74 450.01C299.74 422.4 277.37 400.01 249.78 400.01C222.19 400.01 199.82 422.4 199.82 450.01C199.82 477.62 222.19 500.01 249.78 500.01Z" fill="white"/>
<path d="M249.78 599.97C277.37 599.97 299.74 577.58 299.74 549.97C299.74 522.36 277.37 499.97 249.78 499.97C222.19 499.97 199.82 522.36 199.82 549.97C199.82 577.59 222.19 599.97 249.78 599.97Z" fill="white"/>
<path d="M249.78 700C277.37 700 299.74 677.61 299.74 650C299.74 622.39 277.37 600 249.78 600C222.19 600 199.82 622.39 199.82 650C199.82 677.61 222.19 700 249.78 700Z" fill="white"/>
<path d="M349.72 100C377.31 100 399.68 77.61 399.68 50C399.68 22.39 377.31 0 349.72 0C322.13 0 299.76 22.39 299.76 50C299.76 77.61 322.13 100 349.72 100Z" fill="white"/>
<path d="M349.72 199.99C377.31 199.99 399.68 177.6 399.68 149.99C399.68 122.38 377.31 99.99 349.72 99.99C322.13 99.99 299.76 122.38 299.76 149.99C299.76 177.6 322.13 199.99 349.72 199.99Z" fill="white"/>
<path d="M349.72 299.99C377.31 299.99 399.68 277.6 399.68 249.99C399.68 222.38 377.31 199.99 349.72 199.99C322.13 199.99 299.76 222.38 299.76 249.99C299.76 277.6 322.13 299.99 349.72 299.99Z" fill="white"/>
<path d="M349.72 400.01C377.31 400.01 399.68 377.62 399.68 350.01C399.68 322.4 377.31 300.01 349.72 300.01C322.13 300.01 299.76 322.4 299.76 350.01C299.76 377.62 322.13 400.01 349.72 400.01Z" fill="white"/>
<path d="M349.72 500.01C377.31 500.01 399.68 477.62 399.68 450.01C399.68 422.4 377.31 400.01 349.72 400.01C322.13 400.01 299.76 422.4 299.76 450.01C299.76 477.62 322.13 500.01 349.72 500.01Z" fill="white"/>
<path d="M349.72 599.97C377.31 599.97 399.68 577.58 399.68 549.97C399.68 522.36 377.31 499.97 349.72 499.97C322.13 499.97 299.76 522.36 299.76 549.97C299.76 577.59 322.13 599.97 349.72 599.97Z" fill="white"/>
<path d="M349.72 700C377.31 700 399.68 677.61 399.68 650C399.68 622.39 377.31 600 349.72 600C322.13 600 299.76 622.39 299.76 650C299.76 677.61 322.13 700 349.72 700Z" fill="white"/>
<path d="M449.64 100C477.23 100 499.6 77.61 499.6 50C499.6 22.39 477.23 0 449.64 0C422.05 0 399.68 22.39 399.68 50C399.68 77.61 422.04 100 449.64 100Z" fill="white"/>
<path d="M449.64 199.99C477.23 199.99 499.6 177.6 499.6 149.99C499.6 122.38 477.23 99.99 449.64 99.99C422.05 99.99 399.68 122.38 399.68 149.99C399.68 177.6 422.04 199.99 449.64 199.99Z" fill="white"/>
<path d="M449.64 299.99C477.23 299.99 499.6 277.6 499.6 249.99C499.6 222.38 477.23 199.99 449.64 199.99C422.05 199.99 399.68 222.38 399.68 249.99C399.68 277.6 422.04 299.99 449.64 299.99Z" fill="white"/>
<path d="M449.64 400.01C477.23 400.01 499.6 377.62 499.6 350.01C499.6 322.4 477.23 300.01 449.64 300.01C422.05 300.01 399.68 322.4 399.68 350.01C399.68 377.62 422.04 400.01 449.64 400.01Z" fill="white"/>
<path d="M449.64 500.01C477.23 500.01 499.6 477.62 499.6 450.01C499.6 422.4 477.23 400.01 449.64 400.01C422.05 400.01 399.68 422.4 399.68 450.01C399.68 477.62 422.04 500.01 449.64 500.01Z" fill="white"/>
<path d="M449.64 599.97C477.23 599.97 499.6 577.58 499.6 549.97C499.6 522.36 477.23 499.97 449.64 499.97C422.05 499.97 399.68 522.36 399.68 549.97C399.68 577.59 422.04 599.97 449.64 599.97Z" fill="white"/>
<path d="M549.58 100C577.17 100 599.54 77.61 599.54 50C599.54 22.39 577.17 0 549.58 0C521.99 0 499.62 22.39 499.62 50C499.62 77.61 521.99 100 549.58 100Z" fill="white"/>
<path d="M549.58 199.99C577.17 199.99 599.54 177.6 599.54 149.99C599.54 122.38 577.17 99.99 549.58 99.99C521.99 99.99 499.62 122.38 499.62 149.99C499.62 177.6 521.99 199.99 549.58 199.99Z" fill="white"/>
<path d="M549.58 299.99C577.17 299.99 599.54 277.6 599.54 249.99C599.54 222.38 577.17 199.99 549.58 199.99C521.99 199.99 499.62 222.38 499.62 249.99C499.62 277.6 521.99 299.99 549.58 299.99Z" fill="white"/>
<path d="M549.58 400.01C577.17 400.01 599.54 377.62 599.54 350.01C599.54 322.4 577.17 300.01 549.58 300.01C521.99 300.01 499.62 322.4 499.62 350.01C499.62 377.62 521.99 400.01 549.58 400.01Z" fill="white"/>
<path d="M549.58 500.01C577.17 500.01 599.54 477.62 599.54 450.01C599.54 422.4 577.17 400.01 549.58 400.01C521.99 400.01 499.62 422.4 499.62 450.01C499.62 477.62 521.99 500.01 549.58 500.01Z" fill="white"/>
<path d="M549.58 599.97C577.17 599.97 599.54 577.58 599.54 549.97C599.54 522.36 577.17 499.97 549.58 499.97C521.99 499.97 499.62 522.36 499.62 549.97C499.62 577.59 521.99 599.97 549.58 599.97Z" fill="white"/>
<path d="M649.49 100C677.08 100 699.45 77.61 699.45 50C699.45 22.39 677.08 0 649.49 0C621.9 0 599.53 22.39 599.53 50C599.53 77.61 621.9 100 649.49 100Z" fill="white"/>
<path d="M649.49 199.99C677.08 199.99 699.45 177.6 699.45 149.99C699.45 122.38 677.08 99.99 649.49 99.99C621.9 99.99 599.53 122.38 599.53 149.99C599.53 177.6 621.9 199.99 649.49 199.99Z" fill="white"/>
<path d="M649.49 299.99C677.08 299.99 699.45 277.6 699.45 249.99C699.45 222.38 677.08 199.99 649.49 199.99C621.9 199.99 599.53 222.38 599.53 249.99C599.53 277.6 621.9 299.99 649.49 299.99Z" fill="white"/>
<path d="M649.49 400.01C677.08 400.01 699.45 377.62 699.45 350.01C699.45 322.4 677.08 300.01 649.49 300.01C621.9 300.01 599.53 322.4 599.53 350.01C599.53 377.62 621.9 400.01 649.49 400.01Z" fill="white"/>
<path d="M749.38 199.99C776.97 199.99 799.34 177.6 799.34 149.99C799.34 122.38 776.97 99.99 749.38 99.99C721.79 99.99 699.42 122.38 699.42 149.99C699.42 177.6 721.78 199.99 749.38 199.99Z" fill="white"/>
<path d="M749.38 299.99C776.97 299.99 799.34 277.6 799.34 249.99C799.34 222.38 776.97 199.99 749.38 199.99C721.79 199.99 699.42 222.38 699.42 249.99C699.42 277.6 721.78 299.99 749.38 299.99Z" fill="white"/>
<path d="M1022.53 153.69L1068.32 249.54H1078.29L1124.19 153.69V249.54H1147.56V100H1125.03L1073.31 205.92L1021.59 100H999.06V249.54H1022.53V153.69Z" fill="white"/>
<path d="M1426.68 245.08C1435.06 250.13 1444.85 252.66 1456.07 252.66C1467.29 252.66 1477.09 250.17 1485.46 245.18C1493.84 240.13 1500.35 233.17 1504.98 224.31C1509.69 215.38 1512.04 205.1 1512.04 193.47C1512.04 181.91 1509.72 171.7 1505.08 162.84C1500.45 153.91 1493.94 146.92 1485.56 141.86C1477.19 136.81 1467.35 134.28 1456.07 134.28C1445.06 134.28 1435.37 136.77 1426.99 141.76C1418.62 146.74 1412.07 153.67 1407.36 162.53C1402.65 171.39 1400.3 181.71 1400.3 193.48C1400.3 205.04 1402.58 215.29 1407.15 224.22C1411.8 233.06 1418.31 240.02 1426.68 245.08ZM1429.9 174.87C1431.98 169.47 1435.16 165.28 1439.45 162.3C1443.81 159.25 1449.35 157.73 1456.06 157.73C1465.89 157.73 1473.27 160.98 1478.18 167.49C1483.1 173.93 1485.55 182.58 1485.55 193.45C1485.55 203.97 1483.13 212.56 1478.28 219.2C1473.44 225.85 1466.03 229.17 1456.06 229.17C1446.44 229.17 1439.13 225.95 1434.15 219.51C1429.24 213 1426.78 204.31 1426.78 193.44C1426.79 186.4 1427.83 180.21 1429.9 174.87Z" fill="white"/>
<path d="M1326.37 249.54H1351.4V159.61H1388.89V137.39H1288.88V159.61H1326.37V249.54Z" fill="white"/>
<path d="M1197.82 245.28C1206.4 250.2 1216.37 252.65 1227.73 252.65C1238.53 252.65 1248.39 249.85 1257.33 244.24C1266.32 238.63 1272.97 230.77 1277.27 220.67L1252.55 213.19C1250.12 218.38 1246.66 222.36 1242.16 225.13C1237.73 227.83 1232.43 229.18 1226.27 229.18C1216.72 229.18 1209.45 226.06 1204.46 219.83C1200.55 214.95 1198.23 208.44 1197.39 200.41H1253.69H1266.26H1278.51C1279.48 186.98 1277.99 175.31 1274.05 165.41C1270.1 155.51 1264.04 147.86 1255.88 142.46C1247.78 136.99 1237.91 134.26 1226.28 134.26C1215.27 134.26 1205.57 136.75 1197.2 141.74C1188.82 146.72 1182.28 153.75 1177.57 162.82C1172.86 171.82 1170.51 182.45 1170.51 194.7C1170.51 206.05 1172.9 216.09 1177.68 224.82C1182.51 233.55 1189.23 240.37 1197.82 245.28ZM1227.31 156.18C1236.38 156.18 1243.02 158.98 1247.25 164.59C1250.23 168.56 1252.13 174.26 1253.04 181.52H1198.09C1199.24 175.11 1201.29 169.75 1204.47 165.74C1209.45 159.37 1217.06 156.18 1227.31 156.18Z" fill="white"/>
<path d="M1634.41 229.91V137.38H1550.92C1550.58 145.76 1550.16 153.72 1549.67 161.26C1549.25 168.81 1548.74 175.97 1548.11 182.76C1547.49 189.54 1546.7 195.98 1545.72 202.08C1544.2 212.33 1542.16 219.53 1539.59 223.68C1537.03 227.83 1532.7 229.91 1526.61 229.91V274.46H1550.18V249.54H1622.04V274.46H1645.72V229.91H1634.41ZM1609.49 229.91H1560.16C1562.93 227.14 1564.87 223.89 1565.98 220.15C1567.09 216.41 1568.02 211.63 1568.78 205.82C1569.27 202.5 1569.68 198.9 1570.02 195.02C1570.44 191.07 1570.82 186.95 1571.16 182.66C1571.51 178.37 1571.82 174.08 1572.1 169.78C1572.38 165.42 1572.62 161.16 1572.83 157.01H1609.49V229.91Z" fill="white"/>
<path d="M1035.02 440.81H1093.92L1104.25 473.21H1130.01L1082.86 323.67H1046.2L999.05 473.21H1024.81L1035.02 440.81ZM1064.29 347.89L1086.47 417.45H1042.38L1064.29 347.89Z" fill="white"/>
<path d="M1171.32 464.9C1174.3 460.19 1176.58 453.79 1178.17 445.69C1178.86 442.09 1179.52 437.76 1180.14 432.71C1180.83 427.59 1181.45 422.19 1182.01 416.51C1182.56 410.83 1183.08 405.23 1183.57 399.69C1184.06 394.08 1184.47 389.03 1184.82 384.53H1220.44V473.22H1245.36V361.06H1162.8C1162.25 370.61 1161.62 379.96 1160.93 389.1C1160.31 398.24 1159.55 406.82 1158.64 414.85C1157.81 422.88 1156.84 429.98 1155.73 436.14C1154.9 440.5 1153.93 444 1152.82 446.63C1151.71 449.26 1150.05 451.06 1147.84 452.03C1145.62 452.93 1142.47 453 1138.39 452.24V473.22C1146.9 475.09 1153.79 475.33 1159.06 473.95C1164.33 472.62 1168.41 469.61 1171.32 464.9Z" fill="white"/>
<path d="M2135.13 361.06L2135.23 473.22H2173.03C2176.15 473.22 2179.72 473.15 2183.73 473.01C2187.75 472.8 2191.1 472.39 2193.8 471.76C2203.01 469.61 2210.18 465.6 2215.3 459.71C2220.43 453.76 2222.99 445.83 2222.99 435.93C2222.99 429.01 2221.82 423.09 2219.46 418.17C2217.11 413.25 2213.69 409.27 2209.18 406.23C2204.75 403.18 2199.39 400.97 2193.08 399.58C2190.45 399.09 2187.16 398.78 2183.21 398.65C2179.33 398.51 2175.84 398.44 2172.72 398.44H2160.15V361.05H2135.13V361.06ZM2175.21 418.07C2176.66 418.07 2178.22 418.14 2179.88 418.28C2181.61 418.42 2183.31 418.7 2184.97 419.11C2188.5 420.01 2191.48 421.91 2193.9 424.82C2196.33 427.73 2197.53 431.43 2197.53 435.93C2197.53 440.22 2196.32 443.86 2193.9 446.83C2191.48 449.74 2188.71 451.61 2185.59 452.44C2183.93 452.92 2182.16 453.24 2180.29 453.37C2178.42 453.51 2176.73 453.58 2175.2 453.58H2160.14V418.06H2175.21V418.07Z" fill="white"/>
<path d="M1986.52 498.14V453.59H1975.2V361.06H1891.71C1891.37 369.44 1890.95 377.4 1890.46 384.94C1890.04 392.49 1889.53 399.65 1888.9 406.44C1888.28 413.22 1887.49 419.66 1886.51 425.76C1884.99 436.01 1882.95 443.21 1880.38 447.36C1877.82 451.51 1873.49 453.59 1867.4 453.59V498.14H1890.97V473.22H1962.83V498.14H1986.52ZM1950.28 453.59H1900.95C1903.72 450.82 1905.66 447.57 1906.77 443.83C1907.88 440.09 1908.81 435.31 1909.57 429.5C1910.06 426.18 1910.47 422.58 1910.82 418.7C1911.24 414.75 1911.62 410.63 1911.96 406.34C1912.31 402.05 1912.62 397.75 1912.89 393.46C1913.17 389.1 1913.41 384.84 1913.62 380.69H1950.28V453.59Z" fill="white"/>
<path d="M2007.15 361.06V523.06H2032.38V467.44C2032.84 467.79 2033.25 468.2 2033.73 468.54C2041.14 473.73 2050.31 476.33 2061.25 476.33C2071.56 476.33 2080.57 473.73 2088.25 468.54C2095.93 463.35 2101.89 456.29 2106.11 447.36C2110.33 438.43 2112.44 428.36 2112.44 417.14C2112.44 405.79 2110.29 395.68 2106 386.82C2101.7 377.89 2095.65 370.86 2087.83 365.74C2080.07 360.55 2070.9 357.95 2060.31 357.95C2049.65 357.95 2040.68 360.55 2033.41 365.74C2031.94 366.79 2030.58 367.97 2029.26 369.18V361.07H2007.15V361.06ZM2032.07 397.92C2034 392.38 2036.98 388.09 2041 385.04C2045.01 381.92 2050.2 380.37 2056.58 380.37C2063.29 380.37 2068.83 382.03 2073.2 385.35C2077.56 388.6 2080.78 393.03 2082.86 398.64C2084.94 404.18 2085.97 410.34 2085.97 417.12C2085.97 423.97 2084.93 430.2 2082.86 435.81C2080.85 441.35 2077.73 445.75 2073.51 449C2069.29 452.25 2063.92 453.88 2057.41 453.88C2050.69 453.88 2045.26 452.36 2041.11 449.31C2037.02 446.19 2034.01 441.87 2032.07 436.33C2030.2 430.79 2029.27 424.39 2029.27 417.12C2029.27 409.8 2030.2 403.39 2032.07 397.92Z" fill="white"/>
<path d="M1821.7 473.21H1846.73V361.06H1821.7V405.3H1771.34V361.06H1746.31V473.21H1771.34V428.77H1821.7V473.21Z" fill="white"/>
<path d="M2259.75 361.06H2234.72V473.22H2259.75V361.06Z" fill="white"/>
<path d="M1528.32 468.64C1536.49 473.76 1546.36 476.32 1557.92 476.32C1570.45 476.32 1581.04 473.27 1589.7 467.18C1598.36 461.02 1604.41 452.23 1607.87 440.8L1582.32 435.09C1580.38 440.84 1577.47 445.23 1573.6 448.28C1569.79 451.33 1564.57 452.85 1557.92 452.85C1548.5 452.85 1541.41 449.56 1536.63 442.98C1531.85 436.4 1529.46 427.78 1529.46 417.12C1529.46 410.27 1530.46 404.14 1532.47 398.74C1534.48 393.34 1537.59 389.12 1541.82 386.07C1546.04 382.95 1551.41 381.4 1557.92 381.4C1563.67 381.4 1568.79 383.1 1573.29 386.49C1577.79 389.81 1581.01 394.49 1582.95 400.51L1607.87 393.76C1605.17 382.68 1599.39 373.96 1590.53 367.59C1581.74 361.15 1570.97 357.93 1558.23 357.93C1546.88 357.93 1537.08 360.49 1528.84 365.61C1520.6 370.66 1514.23 377.66 1509.73 386.59C1505.3 395.45 1503.05 405.63 1502.98 417.12C1503.05 428.41 1505.23 438.51 1509.52 447.44C1513.88 456.39 1520.15 463.45 1528.32 468.64Z" fill="white"/>
<path d="M1295.62 468.95C1304.2 473.87 1314.17 476.32 1325.53 476.32C1336.33 476.32 1346.2 473.52 1355.13 467.91C1364.13 462.3 1370.78 454.44 1375.07 444.34L1350.35 436.86C1347.93 442.05 1344.46 446.03 1339.96 448.8C1335.53 451.5 1330.23 452.85 1324.07 452.85C1314.52 452.85 1307.25 449.73 1302.26 443.5C1298.36 438.62 1296.03 432.11 1295.19 424.08H1351.49H1364.05H1376.31C1377.28 410.65 1375.79 398.98 1371.84 389.08C1367.89 379.18 1361.84 371.53 1353.67 366.13C1345.57 360.66 1335.7 357.93 1324.07 357.93C1313.06 357.93 1303.37 360.42 1294.99 365.41C1286.61 370.39 1280.07 377.42 1275.36 386.49C1270.65 395.49 1268.3 406.12 1268.3 418.37C1268.3 429.72 1270.69 439.76 1275.47 448.49C1280.32 457.22 1287.03 464.04 1295.62 468.95ZM1325.11 379.85C1334.18 379.85 1340.83 382.65 1345.05 388.26C1348.04 392.23 1349.93 397.93 1350.84 405.19H1295.88C1297.03 398.78 1299.08 393.42 1302.26 389.41C1307.25 383.04 1314.87 379.85 1325.11 379.85Z" fill="white"/>
<path d="M1683.45 470.72C1688.67 467.79 1693.37 463.55 1697.57 458.07V473.21H1719.48V404.36C1719.48 399.51 1719.27 395.05 1718.86 390.96C1718.45 386.81 1717.23 382.76 1715.23 378.81C1711.56 371.4 1705.92 366.07 1698.3 362.82C1690.75 359.57 1682 357.94 1672.03 357.94C1658.81 357.94 1648.28 360.81 1640.46 366.56C1632.71 372.31 1627.45 379.92 1624.67 389.41L1647.52 396.58C1649.39 390.83 1652.68 386.78 1657.39 384.43C1662.1 382.08 1666.98 380.9 1672.03 380.9C1680.41 380.9 1686.36 382.73 1689.89 386.4C1692.82 389.44 1694.43 393.97 1694.89 399.82C1690.39 400.49 1685.97 401.15 1681.69 401.77C1674.63 402.74 1668.05 403.81 1661.96 404.99C1655.94 406.17 1650.68 407.48 1646.18 408.94C1640.23 410.95 1635.38 413.54 1631.64 416.73C1627.9 419.85 1625.13 423.58 1623.33 427.95C1621.53 432.24 1620.63 437.09 1620.63 442.49C1620.63 448.65 1622.05 454.29 1624.89 459.42C1627.8 464.54 1632.06 468.66 1637.66 471.78C1643.27 474.83 1650.12 476.35 1658.22 476.35C1668.32 476.33 1676.73 474.46 1683.45 470.72ZM1647.2 449.54C1645.82 447.39 1645.12 444.94 1645.12 442.17C1645.12 439.75 1645.64 437.64 1646.68 435.84C1647.79 434.04 1649.35 432.45 1651.35 431.06C1653.36 429.68 1655.82 428.46 1658.72 427.43C1661.7 426.46 1665.12 425.6 1669 424.83C1672.88 424 1677.51 423.13 1682.92 422.23C1686.33 421.66 1690.33 421.02 1694.59 420.34C1694.54 422.27 1694.47 424.39 1694.34 426.9C1694.2 430.98 1693.47 434.62 1692.16 437.8C1691.33 440.36 1689.7 443.1 1687.28 446C1684.93 448.91 1681.74 451.37 1677.73 453.37C1673.71 455.38 1668.87 456.38 1663.19 456.38C1659.24 456.38 1655.92 455.76 1653.22 454.51C1650.6 453.27 1648.59 451.61 1647.2 449.54Z" fill="white"/>
<path d="M1497.1 361.06H1465.84L1424.82 415.06V361.06H1399.48L1399.27 473.21H1424.82V419.21L1467.71 473.21H1500.84L1453.58 417.13L1497.1 361.06Z" fill="white"/>
<path d="M2218.36 549.11C2216.07 546.76 2214.93 543.92 2214.93 540.59H2195.41C2195.41 546.41 2196.82 551.7 2199.67 556.48C2202.51 561.19 2206.32 564.96 2211.09 567.8C2215.87 570.64 2221.12 572.06 2226.88 572.06C2232.62 572.06 2237.89 570.64 2242.67 567.8C2247.45 564.96 2251.25 561.19 2254.09 556.48C2256.93 551.7 2258.35 546.41 2258.35 540.59H2238.83C2238.83 543.91 2237.65 546.75 2235.3 549.11C2233.01 551.39 2230.21 552.54 2226.89 552.54C2223.55 552.54 2220.71 551.39 2218.36 549.11Z" fill="white"/>
<path d="M1073.31 653.27L1021.59 547.34H999.06V696.88H1022.53V601.03L1068.32 696.88H1078.29L1124.19 601.03V696.88H1147.56V547.34H1125.02L1073.31 653.27Z" fill="white"/>
<path d="M1712.5 662.2L1672.31 584.73H1651.75V696.88H1675.74V635.1L1707.62 696.88H1717.49L1749.37 635.1V696.88H1773.25V584.73H1752.79L1712.5 662.2Z" fill="white"/>
<path d="M2012.48 641.33C2010.06 640.15 2007.5 639.36 2004.8 638.94C2006.05 638.52 2007.29 637.97 2008.54 637.28C2009.79 636.59 2011 635.76 2012.18 634.79C2014.67 632.71 2016.68 630.15 2018.2 627.11C2019.73 623.99 2020.48 620.05 2020.48 615.27C2020.48 607.17 2018.4 600.84 2014.25 596.27C2010.1 591.63 2005.32 588.52 1999.92 586.92C1997.63 586.3 1994.9 585.78 1991.72 585.36C1988.53 584.95 1985.1 584.74 1981.44 584.74H1930.45V696.9H1985.59C1989.05 696.9 1992.45 696.76 1995.77 696.48C1999.09 696.13 2002.03 695.62 2004.6 694.92C2011.59 692.91 2016.88 689.35 2020.49 684.22C2024.16 679.03 2026 672.66 2026 665.11C2026 658.46 2024.68 653.31 2022.05 649.64C2019.46 645.96 2016.29 643.2 2012.48 641.33ZM1955.78 604.36H1976.03C1976.73 604.36 1978.28 604.39 1980.7 604.46C1983.19 604.53 1985.3 604.91 1987.04 605.6C1989.67 606.36 1991.58 607.88 1992.75 610.17C1994 612.39 1994.62 614.88 1994.62 617.65C1994.62 620.28 1994.07 622.67 1992.96 624.82C1991.92 626.97 1990.26 628.49 1987.98 629.39C1986.6 630.01 1984.86 630.46 1982.79 630.74C1980.79 630.95 1978.71 631.05 1976.56 631.05H1955.79V604.36H1955.78ZM1998.66 671.23C1997.55 673.51 1995.75 675.11 1993.26 676.01C1991.88 676.49 1990.32 676.87 1988.59 677.15C1986.85 677.43 1985.27 677.57 1983.81 677.57H1955.77V650.67H1983.29C1984.33 650.67 1985.65 650.74 1987.24 650.88C1988.9 650.95 1990.43 651.26 1991.81 651.81C1994.17 652.5 1996.17 653.89 1997.83 655.96C1999.56 657.97 2000.43 660.67 2000.43 664.06C2000.43 666.56 1999.84 668.95 1998.66 671.23Z" fill="white"/>
<path d="M2125.69 589.19C2117.32 584.14 2107.48 581.61 2096.2 581.61C2085.19 581.61 2075.5 584.1 2067.12 589.09C2058.75 594.07 2052.21 601 2047.49 609.86C2042.79 618.72 2040.43 629.04 2040.43 640.81C2040.43 652.37 2042.72 662.62 2047.29 671.55C2051.93 680.41 2058.44 687.37 2066.81 692.42C2075.19 697.47 2084.98 700 2096.2 700C2107.42 700 2117.22 697.51 2125.59 692.52C2133.97 687.47 2140.48 680.51 2145.11 671.65C2149.82 662.72 2152.17 652.44 2152.17 640.81C2152.17 629.25 2149.85 619.04 2145.21 610.18C2140.58 601.24 2134.07 594.25 2125.69 589.19ZM2118.42 666.56C2113.58 673.21 2106.16 676.53 2096.19 676.53C2086.57 676.53 2079.26 673.31 2074.28 666.87C2069.37 660.36 2066.91 651.67 2066.91 640.8C2066.91 633.74 2067.95 627.54 2070.03 622.21C2072.11 616.81 2075.29 612.62 2079.58 609.64C2083.94 606.59 2089.49 605.07 2096.19 605.07C2106.03 605.07 2113.4 608.32 2118.31 614.83C2123.23 621.27 2125.68 629.92 2125.68 640.79C2125.69 651.33 2123.27 659.91 2118.42 666.56Z" fill="white"/>
<path d="M1881.28 589.19C1872.9 584.14 1863.07 581.61 1851.79 581.61C1840.78 581.61 1831.08 584.1 1822.71 589.09C1814.33 594.07 1807.79 601 1803.08 609.86C1798.37 618.72 1796.02 629.04 1796.02 640.81C1796.02 652.37 1798.31 662.62 1802.88 671.55C1807.51 680.41 1814.02 687.37 1822.4 692.42C1830.77 697.47 1840.57 700 1851.79 700C1863 700 1872.8 697.51 1881.18 692.52C1889.55 687.47 1896.06 680.51 1900.7 671.65C1905.41 662.72 1907.76 652.44 1907.76 640.81C1907.76 629.25 1905.44 619.04 1900.8 610.18C1896.17 601.24 1889.66 594.25 1881.28 589.19ZM1874.01 666.56C1869.16 673.21 1861.76 676.53 1851.79 676.53C1842.16 676.53 1834.86 673.31 1829.88 666.87C1824.96 660.36 1822.51 651.67 1822.51 640.8C1822.51 633.74 1823.55 627.54 1825.62 622.21C1827.7 616.81 1830.88 612.62 1835.17 609.64C1839.53 606.59 1845.07 605.07 1851.79 605.07C1861.62 605.07 1868.99 608.32 1873.91 614.83C1878.82 621.27 1881.28 629.92 1881.28 640.79C1881.28 651.33 1878.86 659.91 1874.01 666.56Z" fill="white"/>
<path d="M2198.83 656.07V584.73H2174.85V696.88H2194.89L2248.27 623.67V696.88H2272.25V584.73H2252.42L2198.83 656.07Z" fill="white"/>
<path d="M1438.74 609.76C1442.96 606.64 1448.33 605.09 1454.84 605.09C1460.59 605.09 1465.71 606.79 1470.21 610.18C1474.71 613.5 1477.93 618.18 1479.87 624.2L1504.79 617.45C1502.09 606.37 1496.31 597.65 1487.45 591.28C1478.66 584.84 1467.89 581.62 1455.15 581.62C1443.8 581.62 1434 584.18 1425.76 589.3C1417.52 594.35 1411.15 601.35 1406.65 610.28C1402.22 619.14 1399.97 629.32 1399.9 640.81C1399.97 652.1 1402.15 662.2 1406.44 671.13C1410.8 680.06 1417.07 687.12 1425.24 692.31C1433.41 697.43 1443.28 699.99 1454.84 699.99C1467.37 699.99 1477.96 696.94 1486.62 690.85C1495.27 684.69 1501.33 675.9 1504.79 664.47L1479.25 658.76C1477.31 664.51 1474.4 668.9 1470.52 671.95C1466.71 675 1461.49 676.52 1454.84 676.52C1445.42 676.52 1438.33 673.23 1433.55 666.65C1428.77 660.07 1426.38 651.45 1426.38 640.79C1426.38 633.94 1427.38 627.81 1429.39 622.41C1431.4 617.03 1434.52 612.8 1438.74 609.76Z" fill="white"/>
<path d="M1394.02 584.73H1362.76L1321.74 638.73V584.73H1296.4L1296.19 696.88H1321.74V642.88L1364.63 696.88H1397.76L1350.51 640.81L1394.02 584.73Z" fill="white"/>
<path d="M1549.38 656.07V584.73H1525.39V696.88H1545.43L1598.81 623.67V696.88H1622.8V584.73H1602.96L1549.38 656.07Z" fill="white"/>
<path d="M1265.11 602.49C1261.44 595.08 1255.8 589.75 1248.18 586.5C1240.63 583.25 1231.88 581.62 1221.91 581.62C1208.69 581.62 1198.16 584.49 1190.34 590.24C1182.59 595.99 1177.33 603.6 1174.55 613.09L1197.4 620.26C1199.27 614.51 1202.56 610.46 1207.27 608.11C1211.98 605.76 1216.86 604.58 1221.91 604.58C1230.29 604.58 1236.24 606.41 1239.77 610.08C1242.7 613.12 1244.32 617.65 1244.77 623.5C1240.27 624.17 1235.84 624.83 1231.57 625.45C1224.51 626.42 1217.93 627.49 1211.84 628.67C1205.82 629.85 1200.55 631.16 1196.05 632.62C1190.1 634.63 1185.25 637.22 1181.51 640.41C1177.77 643.53 1175 647.26 1173.2 651.63C1171.4 655.92 1170.5 660.77 1170.5 666.17C1170.5 672.33 1171.92 677.97 1174.76 683.1C1177.67 688.22 1181.93 692.34 1187.53 695.46C1193.14 698.51 1199.99 700.03 1208.09 700.03C1218.2 700.03 1226.61 698.16 1233.32 694.42C1238.54 691.49 1243.24 687.25 1247.44 681.77V696.91H1269.35V628.06C1269.35 623.21 1269.14 618.75 1268.73 614.66C1268.33 610.48 1267.12 606.43 1265.11 602.49ZM1242.05 661.47C1241.22 664.03 1239.59 666.77 1237.17 669.67C1234.82 672.58 1231.63 675.04 1227.62 677.04C1223.6 679.05 1218.76 680.05 1213.08 680.05C1209.13 680.05 1205.81 679.43 1203.11 678.18C1200.48 676.93 1198.47 675.27 1197.09 673.2C1195.71 671.05 1195.01 668.6 1195.01 665.83C1195.01 663.41 1195.53 661.3 1196.57 659.5C1197.68 657.7 1199.24 656.11 1201.24 654.72C1203.25 653.34 1205.71 652.12 1208.61 651.09C1211.59 650.12 1215.01 649.26 1218.89 648.49C1222.77 647.66 1227.4 646.79 1232.81 645.89C1236.22 645.32 1240.22 644.68 1244.48 644C1244.43 645.93 1244.36 648.05 1244.23 650.57C1244.1 654.65 1243.37 658.29 1242.05 661.47Z" fill="white"/>
</svg>
