<?xml version="1.0" encoding="utf-8"?>
<!-- Generator: Adobe Illustrator 26.4.1, SVG Export Plug-In . SVG Version: 6.00 Build 0)  -->
<svg version="1.1" id="Layer_1" xmlns="http://www.w3.org/2000/svg" xmlns:xlink="http://www.w3.org/1999/xlink" x="0px" y="0px"
	 viewBox="0 0 2272.25 700" style="enable-background:new 0 0 2272.25 700;" xml:space="preserve">
<style type="text/css">
	.st0{fill:#3D4671;}
</style>
<g>
	<g>
		<path class="st0" d="M49.96,299.99c27.59,0,49.96-22.39,49.96-50s-22.37-50-49.96-50c-27.59,0-49.96,22.39-49.96,50
			S22.36,299.99,49.96,299.99z"/>
		<path class="st0" d="M49.96,400.01c27.59,0,49.96-22.39,49.96-50s-22.37-50-49.96-50c-27.59,0-49.96,22.39-49.96,50
			S22.36,400.01,49.96,400.01z"/>
		<path class="st0" d="M49.96,500.01c27.59,0,49.96-22.39,49.96-50c0-27.61-22.37-50-49.96-50c-27.59,0-49.96,22.39-49.96,50
			C0,477.62,22.36,500.01,49.96,500.01z"/>
		<path class="st0" d="M49.96,599.97c27.59,0,49.96-22.39,49.96-50c0-27.61-22.37-50-49.96-50c-27.59,0-49.96,22.39-49.96,50
			C0,577.59,22.36,599.97,49.96,599.97z"/>
		<path class="st0" d="M149.87,199.99c27.59,0,49.96-22.39,49.96-50s-22.37-50-49.96-50s-49.96,22.39-49.96,50
			S122.28,199.99,149.87,199.99z"/>
		<path class="st0" d="M149.87,299.99c27.59,0,49.96-22.39,49.96-50s-22.37-50-49.96-50s-49.96,22.39-49.96,50
			S122.28,299.99,149.87,299.99z"/>
		<path class="st0" d="M149.87,400.01c27.59,0,49.96-22.39,49.96-50s-22.37-50-49.96-50s-49.96,22.39-49.96,50
			S122.28,400.01,149.87,400.01z"/>
		<path class="st0" d="M149.87,500.01c27.59,0,49.96-22.39,49.96-50c0-27.61-22.37-50-49.96-50s-49.96,22.39-49.96,50
			C99.91,477.62,122.28,500.01,149.87,500.01z"/>
		<path class="st0" d="M149.87,599.97c27.59,0,49.96-22.39,49.96-50c0-27.61-22.37-50-49.96-50s-49.96,22.39-49.96,50
			C99.91,577.59,122.28,599.97,149.87,599.97z"/>
		<path class="st0" d="M149.87,700c27.59,0,49.96-22.39,49.96-50s-22.37-50-49.96-50s-49.96,22.39-49.96,50S122.28,700,149.87,700z"
			/>
		<path class="st0" d="M249.78,199.99c27.59,0,49.96-22.39,49.96-50s-22.37-50-49.96-50c-27.59,0-49.96,22.39-49.96,50
			S222.19,199.99,249.78,199.99z"/>
		<path class="st0" d="M249.78,299.99c27.59,0,49.96-22.39,49.96-50s-22.37-50-49.96-50c-27.59,0-49.96,22.39-49.96,50
			S222.19,299.99,249.78,299.99z"/>
		<path class="st0" d="M249.78,400.01c27.59,0,49.96-22.39,49.96-50s-22.37-50-49.96-50c-27.59,0-49.96,22.39-49.96,50
			S222.19,400.01,249.78,400.01z"/>
		<path class="st0" d="M249.78,500.01c27.59,0,49.96-22.39,49.96-50c0-27.61-22.37-50-49.96-50c-27.59,0-49.96,22.39-49.96,50
			C199.82,477.62,222.19,500.01,249.78,500.01z"/>
		<path class="st0" d="M249.78,599.97c27.59,0,49.96-22.39,49.96-50c0-27.61-22.37-50-49.96-50c-27.59,0-49.96,22.39-49.96,50
			C199.82,577.59,222.19,599.97,249.78,599.97z"/>
		<path class="st0" d="M249.78,700c27.59,0,49.96-22.39,49.96-50s-22.37-50-49.96-50c-27.59,0-49.96,22.39-49.96,50
			S222.19,700,249.78,700z"/>
		<path class="st0" d="M349.72,100c27.59,0,49.96-22.39,49.96-50c0-27.61-22.37-50-49.96-50c-27.59,0-49.96,22.39-49.96,50
			C299.76,77.61,322.13,100,349.72,100z"/>
		<path class="st0" d="M349.72,199.99c27.59,0,49.96-22.39,49.96-50s-22.37-50-49.96-50c-27.59,0-49.96,22.39-49.96,50
			S322.13,199.99,349.72,199.99z"/>
		<path class="st0" d="M349.72,299.99c27.59,0,49.96-22.39,49.96-50s-22.37-50-49.96-50c-27.59,0-49.96,22.39-49.96,50
			S322.13,299.99,349.72,299.99z"/>
		<path class="st0" d="M349.72,400.01c27.59,0,49.96-22.39,49.96-50s-22.37-50-49.96-50c-27.59,0-49.96,22.39-49.96,50
			S322.13,400.01,349.72,400.01z"/>
		<path class="st0" d="M349.72,500.01c27.59,0,49.96-22.39,49.96-50c0-27.61-22.37-50-49.96-50c-27.59,0-49.96,22.39-49.96,50
			C299.76,477.62,322.13,500.01,349.72,500.01z"/>
		<path class="st0" d="M349.72,599.97c27.59,0,49.96-22.39,49.96-50c0-27.61-22.37-50-49.96-50c-27.59,0-49.96,22.39-49.96,50
			C299.76,577.59,322.13,599.97,349.72,599.97z"/>
		<path class="st0" d="M349.72,700c27.59,0,49.96-22.39,49.96-50s-22.37-50-49.96-50c-27.59,0-49.96,22.39-49.96,50
			S322.13,700,349.72,700z"/>
		<path class="st0" d="M449.64,100c27.59,0,49.96-22.39,49.96-50c0-27.61-22.37-50-49.96-50c-27.59,0-49.96,22.39-49.96,50
			C399.68,77.61,422.04,100,449.64,100z"/>
		<path class="st0" d="M449.64,199.99c27.59,0,49.96-22.39,49.96-50s-22.37-50-49.96-50c-27.59,0-49.96,22.39-49.96,50
			S422.04,199.99,449.64,199.99z"/>
		<path class="st0" d="M449.64,299.99c27.59,0,49.96-22.39,49.96-50s-22.37-50-49.96-50c-27.59,0-49.96,22.39-49.96,50
			S422.04,299.99,449.64,299.99z"/>
		<path class="st0" d="M449.64,400.01c27.59,0,49.96-22.39,49.96-50s-22.37-50-49.96-50c-27.59,0-49.96,22.39-49.96,50
			S422.04,400.01,449.64,400.01z"/>
		<path class="st0" d="M449.64,500.01c27.59,0,49.96-22.39,49.96-50c0-27.61-22.37-50-49.96-50c-27.59,0-49.96,22.39-49.96,50
			C399.68,477.62,422.04,500.01,449.64,500.01z"/>
		<path class="st0" d="M449.64,599.97c27.59,0,49.96-22.39,49.96-50c0-27.61-22.37-50-49.96-50c-27.59,0-49.96,22.39-49.96,50
			C399.68,577.59,422.04,599.97,449.64,599.97z"/>
		<path class="st0" d="M549.58,100c27.59,0,49.96-22.39,49.96-50c0-27.61-22.37-50-49.96-50c-27.59,0-49.96,22.39-49.96,50
			C499.62,77.61,521.99,100,549.58,100z"/>
		<path class="st0" d="M549.58,199.99c27.59,0,49.96-22.39,49.96-50s-22.37-50-49.96-50c-27.59,0-49.96,22.39-49.96,50
			S521.99,199.99,549.58,199.99z"/>
		<path class="st0" d="M549.58,299.99c27.59,0,49.96-22.39,49.96-50s-22.37-50-49.96-50c-27.59,0-49.96,22.39-49.96,50
			S521.99,299.99,549.58,299.99z"/>
		<path class="st0" d="M549.58,400.01c27.59,0,49.96-22.39,49.96-50s-22.37-50-49.96-50c-27.59,0-49.96,22.39-49.96,50
			S521.99,400.01,549.58,400.01z"/>
		<path class="st0" d="M549.58,500.01c27.59,0,49.96-22.39,49.96-50c0-27.61-22.37-50-49.96-50c-27.59,0-49.96,22.39-49.96,50
			C499.62,477.62,521.99,500.01,549.58,500.01z"/>
		<path class="st0" d="M549.58,599.97c27.59,0,49.96-22.39,49.96-50c0-27.61-22.37-50-49.96-50c-27.59,0-49.96,22.39-49.96,50
			C499.62,577.59,521.99,599.97,549.58,599.97z"/>
		<path class="st0" d="M649.49,100c27.59,0,49.96-22.39,49.96-50c0-27.61-22.37-50-49.96-50c-27.59,0-49.96,22.39-49.96,50
			C599.53,77.61,621.9,100,649.49,100z"/>
		<path class="st0" d="M649.49,199.99c27.59,0,49.96-22.39,49.96-50s-22.37-50-49.96-50c-27.59,0-49.96,22.39-49.96,50
			S621.9,199.99,649.49,199.99z"/>
		<path class="st0" d="M649.49,299.99c27.59,0,49.96-22.39,49.96-50s-22.37-50-49.96-50c-27.59,0-49.96,22.39-49.96,50
			S621.9,299.99,649.49,299.99z"/>
		<path class="st0" d="M649.49,400.01c27.59,0,49.96-22.39,49.96-50s-22.37-50-49.96-50c-27.59,0-49.96,22.39-49.96,50
			S621.9,400.01,649.49,400.01z"/>
		<path class="st0" d="M749.38,199.99c27.59,0,49.96-22.39,49.96-50s-22.37-50-49.96-50c-27.59,0-49.96,22.39-49.96,50
			S721.78,199.99,749.38,199.99z"/>
		<path class="st0" d="M749.38,299.99c27.59,0,49.96-22.39,49.96-50s-22.37-50-49.96-50c-27.59,0-49.96,22.39-49.96,50
			S721.78,299.99,749.38,299.99z"/>
	</g>
	<g>
		<g>
			<polygon class="st0" points="1022.53,153.69 1068.32,249.54 1078.29,249.54 1124.19,153.69 1124.19,249.54 1147.56,249.54 
				1147.56,100 1125.03,100 1073.31,205.92 1021.59,100 999.06,100 999.06,249.54 1022.53,249.54 			"/>
			<path class="st0" d="M1426.68,245.08c8.38,5.05,18.17,7.58,29.39,7.58s21.02-2.49,29.39-7.48c8.38-5.05,14.89-12.01,19.52-20.87
				c4.71-8.93,7.06-19.21,7.06-30.84c0-11.56-2.32-21.77-6.96-30.63c-4.63-8.93-11.14-15.92-19.52-20.98
				c-8.37-5.05-18.21-7.58-29.49-7.58c-11.01,0-20.7,2.49-29.08,7.48c-8.37,4.98-14.92,11.91-19.63,20.77
				c-4.71,8.86-7.06,19.18-7.06,30.95c0,11.56,2.28,21.81,6.85,30.74C1411.8,233.06,1418.31,240.02,1426.68,245.08z M1429.9,174.87
				c2.08-5.4,5.26-9.59,9.55-12.57c4.36-3.05,9.9-4.57,16.61-4.57c9.83,0,17.21,3.25,22.12,9.76c4.92,6.44,7.37,15.09,7.37,25.96
				c0,10.52-2.42,19.11-7.27,25.75c-4.84,6.65-12.25,9.97-22.22,9.97c-9.62,0-16.93-3.22-21.91-9.66
				c-4.91-6.51-7.37-15.2-7.37-26.07C1426.79,186.4,1427.83,180.21,1429.9,174.87z"/>
			<polygon class="st0" points="1326.37,249.54 1351.4,249.54 1351.4,159.61 1388.89,159.61 1388.89,137.39 1288.88,137.39 
				1288.88,159.61 1326.37,159.61 			"/>
			<path class="st0" d="M1197.82,245.28c8.58,4.92,18.55,7.37,29.91,7.37c10.8,0,20.66-2.8,29.6-8.41
				c8.99-5.61,15.64-13.47,19.94-23.57l-24.72-7.48c-2.43,5.19-5.89,9.17-10.39,11.94c-4.43,2.7-9.73,4.05-15.89,4.05
				c-9.55,0-16.82-3.12-21.81-9.35c-3.91-4.88-6.23-11.39-7.07-19.42h56.3h12.57h12.25c0.97-13.43-0.52-25.1-4.46-35
				c-3.95-9.9-10.01-17.55-18.17-22.95c-8.1-5.47-17.97-8.2-29.6-8.2c-11.01,0-20.71,2.49-29.08,7.48
				c-8.38,4.98-14.92,12.01-19.63,21.08c-4.71,9-7.06,19.63-7.06,31.88c0,11.35,2.39,21.39,7.17,30.12
				C1182.51,233.55,1189.23,240.37,1197.82,245.28z M1227.31,156.18c9.07,0,15.71,2.8,19.94,8.41c2.98,3.97,4.88,9.67,5.79,16.93
				h-54.95c1.15-6.41,3.2-11.77,6.38-15.78C1209.45,159.37,1217.06,156.18,1227.31,156.18z"/>
			<path class="st0" d="M1634.41,229.91v-92.53h-83.49c-0.34,8.38-0.76,16.34-1.25,23.88c-0.42,7.55-0.93,14.71-1.56,21.5
				c-0.62,6.78-1.41,13.22-2.39,19.32c-1.52,10.25-3.56,17.45-6.13,21.6c-2.56,4.15-6.89,6.23-12.98,6.23v44.55h23.57v-24.92h71.86
				v24.92h23.68v-44.55H1634.41z M1609.49,229.91h-49.33c2.77-2.77,4.71-6.02,5.82-9.76c1.11-3.74,2.04-8.52,2.8-14.33
				c0.49-3.32,0.9-6.92,1.24-10.8c0.42-3.95,0.8-8.07,1.14-12.36c0.35-4.29,0.66-8.58,0.94-12.88c0.28-4.36,0.52-8.62,0.73-12.77
				h36.66V229.91z"/>
		</g>
		<g>
			<path class="st0" d="M1035.02,440.81h58.9l10.33,32.4h25.76l-47.15-149.54h-36.66l-47.15,149.54h25.76L1035.02,440.81z
				 M1064.29,347.89l22.18,69.56h-44.09L1064.29,347.89z"/>
			<path class="st0" d="M1171.32,464.9c2.98-4.71,5.26-11.11,6.85-19.21c0.69-3.6,1.35-7.93,1.97-12.98
				c0.69-5.12,1.31-10.52,1.87-16.2c0.55-5.68,1.07-11.28,1.56-16.82c0.49-5.61,0.9-10.66,1.25-15.16h35.62v88.69h24.92V361.06
				h-82.56c-0.55,9.55-1.18,18.9-1.87,28.04c-0.62,9.14-1.38,17.72-2.29,25.75c-0.83,8.03-1.8,15.13-2.91,21.29
				c-0.83,4.36-1.8,7.86-2.91,10.49c-1.11,2.63-2.77,4.43-4.98,5.4c-2.22,0.9-5.37,0.97-9.45,0.21v20.98
				c8.51,1.87,15.4,2.11,20.67,0.73C1164.33,472.62,1168.41,469.61,1171.32,464.9z"/>
			<path class="st0" d="M2135.13,361.06l0.1,112.16h37.8c3.12,0,6.69-0.07,10.7-0.21c4.02-0.21,7.37-0.62,10.07-1.25
				c9.21-2.15,16.38-6.16,21.5-12.05c5.13-5.95,7.69-13.88,7.69-23.78c0-6.92-1.17-12.84-3.53-17.76
				c-2.35-4.92-5.77-8.9-10.28-11.94c-4.43-3.05-9.79-5.26-16.1-6.65c-2.63-0.49-5.92-0.8-9.87-0.93
				c-3.88-0.14-7.37-0.21-10.49-0.21h-12.57v-37.39H2135.13z M2175.21,418.07c1.45,0,3.01,0.07,4.67,0.21
				c1.73,0.14,3.43,0.42,5.09,0.83c3.53,0.9,6.51,2.8,8.93,5.71c2.43,2.91,3.63,6.61,3.63,11.11c0,4.29-1.21,7.93-3.63,10.9
				c-2.42,2.91-5.19,4.78-8.31,5.61c-1.66,0.48-3.43,0.8-5.3,0.93c-1.87,0.14-3.56,0.21-5.09,0.21h-15.06v-35.52H2175.21z"/>
			<path class="st0" d="M1986.52,498.14v-44.55h-11.32v-92.53h-83.49c-0.34,8.38-0.76,16.34-1.25,23.88
				c-0.42,7.55-0.93,14.71-1.56,21.5c-0.62,6.78-1.41,13.22-2.39,19.32c-1.52,10.25-3.56,17.45-6.13,21.6
				c-2.56,4.15-6.89,6.23-12.98,6.23v44.55h23.57v-24.92h71.86v24.92H1986.52z M1950.28,453.59h-49.33
				c2.77-2.77,4.71-6.02,5.82-9.76c1.11-3.74,2.04-8.52,2.8-14.33c0.49-3.32,0.9-6.92,1.25-10.8c0.42-3.95,0.8-8.07,1.14-12.36
				c0.35-4.29,0.66-8.59,0.93-12.88c0.28-4.36,0.52-8.62,0.73-12.77h36.66V453.59z"/>
			<path class="st0" d="M2007.15,361.06v162h25.23v-55.62c0.46,0.35,0.87,0.76,1.35,1.1c7.41,5.19,16.58,7.79,27.52,7.79
				c10.31,0,19.32-2.6,27-7.79c7.68-5.19,13.64-12.25,17.86-21.18c4.22-8.93,6.33-19,6.33-30.22c0-11.35-2.15-21.46-6.44-30.32
				c-4.3-8.93-10.35-15.96-18.17-21.08c-7.76-5.19-16.93-7.79-27.52-7.79c-10.66,0-19.63,2.6-26.9,7.79
				c-1.47,1.05-2.83,2.23-4.15,3.44v-8.11H2007.15z M2032.07,397.92c1.93-5.54,4.91-9.83,8.93-12.88c4.01-3.12,9.2-4.67,15.58-4.67
				c6.71,0,12.25,1.66,16.62,4.98c4.36,3.25,7.58,7.68,9.66,13.29c2.08,5.54,3.11,11.7,3.11,18.48c0,6.85-1.04,13.08-3.11,18.69
				c-2.01,5.54-5.13,9.94-9.35,13.19c-4.22,3.25-9.59,4.88-16.1,4.88c-6.72,0-12.15-1.52-16.3-4.57c-4.09-3.12-7.1-7.44-9.04-12.98
				c-1.87-5.54-2.8-11.94-2.8-19.21C2029.27,409.8,2030.2,403.39,2032.07,397.92z"/>
			<polygon class="st0" points="1821.7,473.21 1846.73,473.21 1846.73,361.06 1821.7,361.06 1821.7,405.3 1771.34,405.3 
				1771.34,361.06 1746.31,361.06 1746.31,473.21 1771.34,473.21 1771.34,428.77 1821.7,428.77 			"/>
			<rect x="2234.72" y="361.06" class="st0" width="25.03" height="112.16"/>
			<path class="st0" d="M1528.32,468.64c8.17,5.12,18.04,7.68,29.6,7.68c12.53,0,23.12-3.05,31.78-9.14
				c8.66-6.16,14.71-14.95,18.17-26.38l-25.55-5.71c-1.94,5.75-4.85,10.14-8.72,13.19c-3.81,3.05-9.03,4.57-15.68,4.57
				c-9.42,0-16.51-3.29-21.29-9.87c-4.78-6.58-7.17-15.2-7.17-25.86c0-6.85,1-12.98,3.01-18.38c2.01-5.4,5.12-9.62,9.35-12.67
				c4.22-3.12,9.59-4.67,16.1-4.67c5.75,0,10.87,1.7,15.37,5.09c4.5,3.32,7.72,8,9.66,14.02l24.92-6.75
				c-2.7-11.08-8.48-19.8-17.34-26.17c-8.79-6.44-19.56-9.66-32.3-9.66c-11.35,0-21.15,2.56-29.39,7.68
				c-8.24,5.05-14.61,12.05-19.11,20.98c-4.43,8.86-6.68,19.04-6.75,30.53c0.07,11.29,2.25,21.39,6.54,30.32
				C1513.88,456.39,1520.15,463.45,1528.32,468.64z"/>
			<path class="st0" d="M1295.62,468.95c8.58,4.92,18.55,7.37,29.91,7.37c10.8,0,20.67-2.8,29.6-8.41
				c9-5.61,15.65-13.47,19.94-23.57l-24.72-7.48c-2.42,5.19-5.89,9.17-10.39,11.94c-4.43,2.7-9.73,4.05-15.89,4.05
				c-9.55,0-16.82-3.12-21.81-9.35c-3.9-4.88-6.23-11.39-7.07-19.42h56.3h12.56h12.26c0.97-13.43-0.52-25.1-4.47-35
				c-3.95-9.9-10-17.55-18.17-22.95c-8.1-5.47-17.97-8.2-29.6-8.2c-11.01,0-20.7,2.49-29.08,7.48
				c-8.38,4.98-14.92,12.01-19.63,21.08c-4.71,9-7.06,19.63-7.06,31.88c0,11.35,2.39,21.39,7.17,30.12
				C1280.32,457.22,1287.03,464.04,1295.62,468.95z M1325.11,379.85c9.07,0,15.72,2.8,19.94,8.41c2.99,3.97,4.88,9.67,5.79,16.93
				h-54.96c1.15-6.41,3.2-11.77,6.38-15.78C1307.25,383.04,1314.87,379.85,1325.11,379.85z"/>
			<path class="st0" d="M1683.45,470.72c5.22-2.93,9.92-7.17,14.12-12.65v15.14h21.91v-68.85c0-4.85-0.21-9.31-0.62-13.4
				c-0.41-4.15-1.63-8.2-3.63-12.15c-3.67-7.41-9.31-12.74-16.93-15.99c-7.55-3.25-16.3-4.88-26.27-4.88
				c-13.22,0-23.75,2.87-31.57,8.62c-7.75,5.75-13.01,13.36-15.79,22.85l22.85,7.17c1.87-5.75,5.16-9.8,9.87-12.15
				c4.71-2.35,9.59-3.53,14.64-3.53c8.38,0,14.33,1.83,17.86,5.5c2.93,3.04,4.54,7.57,5,13.42c-4.5,0.67-8.92,1.33-13.2,1.95
				c-7.06,0.97-13.64,2.04-19.73,3.22c-6.02,1.18-11.28,2.49-15.78,3.95c-5.95,2.01-10.8,4.6-14.54,7.79
				c-3.74,3.12-6.51,6.85-8.31,11.22c-1.8,4.29-2.7,9.14-2.7,14.54c0,6.16,1.42,11.8,4.26,16.93c2.91,5.12,7.17,9.24,12.77,12.36
				c5.61,3.05,12.46,4.57,20.56,4.57C1668.32,476.33,1676.73,474.46,1683.45,470.72z M1647.2,449.54c-1.38-2.15-2.08-4.6-2.08-7.37
				c0-2.42,0.52-4.53,1.56-6.33c1.11-1.8,2.67-3.39,4.67-4.78c2.01-1.38,4.47-2.6,7.37-3.63c2.98-0.97,6.4-1.83,10.28-2.6
				c3.88-0.83,8.51-1.7,13.92-2.6c3.41-0.57,7.41-1.21,11.67-1.89c-0.05,1.93-0.12,4.05-0.25,6.56c-0.14,4.08-0.87,7.72-2.18,10.9
				c-0.83,2.56-2.46,5.3-4.88,8.2c-2.35,2.91-5.54,5.37-9.55,7.37c-4.02,2.01-8.86,3.01-14.54,3.01c-3.95,0-7.27-0.62-9.97-1.87
				C1650.6,453.27,1648.59,451.61,1647.2,449.54z"/>
			<polygon class="st0" points="1497.1,361.06 1465.84,361.06 1424.82,415.06 1424.82,361.06 1399.48,361.06 1399.27,473.21 
				1424.82,473.21 1424.82,419.21 1467.71,473.21 1500.84,473.21 1453.58,417.13 			"/>
		</g>
		<g>
			<path class="st0" d="M2218.36,549.11c-2.29-2.35-3.43-5.19-3.43-8.52h-19.52c0,5.82,1.41,11.11,4.26,15.89
				c2.84,4.71,6.65,8.48,11.42,11.32c4.78,2.84,10.03,4.26,15.79,4.26c5.74,0,11.01-1.42,15.79-4.26
				c4.78-2.84,8.58-6.61,11.42-11.32c2.84-4.78,4.26-10.07,4.26-15.89h-19.52c0,3.32-1.18,6.16-3.53,8.52
				c-2.29,2.28-5.09,3.43-8.41,3.43C2223.55,552.54,2220.71,551.39,2218.36,549.11z"/>
			<polygon class="st0" points="1073.31,653.27 1021.59,547.34 999.06,547.34 999.06,696.88 1022.53,696.88 1022.53,601.03 
				1068.32,696.88 1078.29,696.88 1124.19,601.03 1124.19,696.88 1147.56,696.88 1147.56,547.34 1125.02,547.34 			"/>
			<polygon class="st0" points="1712.5,662.2 1672.31,584.73 1651.75,584.73 1651.75,696.88 1675.74,696.88 1675.74,635.1 
				1707.62,696.88 1717.49,696.88 1749.37,635.1 1749.37,696.88 1773.25,696.88 1773.25,584.73 1752.79,584.73 			"/>
			<path class="st0" d="M2012.48,641.33c-2.42-1.18-4.98-1.97-7.68-2.39c1.25-0.42,2.49-0.97,3.74-1.66
				c1.25-0.69,2.46-1.52,3.64-2.49c2.49-2.08,4.5-4.64,6.02-7.68c1.53-3.12,2.28-7.06,2.28-11.84c0-8.1-2.08-14.43-6.23-19
				c-4.15-4.64-8.93-7.75-14.33-9.35c-2.29-0.62-5.02-1.14-8.2-1.56c-3.19-0.41-6.62-0.62-10.28-0.62h-50.99v112.16h55.14
				c3.46,0,6.86-0.14,10.18-0.42c3.32-0.35,6.26-0.86,8.83-1.56c6.99-2.01,12.28-5.57,15.89-10.7c3.67-5.19,5.51-11.56,5.51-19.11
				c0-6.65-1.32-11.8-3.95-15.47C2019.46,645.96,2016.29,643.2,2012.48,641.33z M1955.78,604.36h20.25c0.7,0,2.25,0.03,4.67,0.1
				c2.49,0.07,4.6,0.45,6.34,1.14c2.63,0.76,4.54,2.28,5.71,4.57c1.25,2.22,1.87,4.71,1.87,7.48c0,2.63-0.55,5.02-1.66,7.17
				c-1.04,2.15-2.7,3.67-4.98,4.57c-1.38,0.62-3.12,1.07-5.19,1.35c-2,0.21-4.08,0.31-6.23,0.31h-20.77V604.36z M1998.66,671.23
				c-1.11,2.28-2.91,3.88-5.4,4.78c-1.38,0.48-2.94,0.86-4.67,1.14c-1.74,0.28-3.32,0.42-4.78,0.42h-28.04v-26.9h27.52
				c1.04,0,2.36,0.07,3.95,0.21c1.66,0.07,3.19,0.38,4.57,0.93c2.36,0.69,4.36,2.08,6.02,4.15c1.73,2.01,2.6,4.71,2.6,8.1
				C2000.43,666.56,1999.84,668.95,1998.66,671.23z"/>
			<path class="st0" d="M2125.69,589.19c-8.37-5.05-18.21-7.58-29.49-7.58c-11.01,0-20.7,2.49-29.08,7.48
				c-8.37,4.98-14.91,11.91-19.63,20.77c-4.7,8.86-7.06,19.18-7.06,30.95c0,11.56,2.29,21.81,6.86,30.74
				c4.64,8.86,11.15,15.82,19.52,20.87c8.38,5.05,18.17,7.58,29.39,7.58c11.22,0,21.02-2.49,29.39-7.48
				c8.38-5.05,14.89-12.01,19.52-20.87c4.71-8.93,7.06-19.21,7.06-30.84c0-11.56-2.32-21.77-6.96-30.63
				C2140.58,601.24,2134.07,594.25,2125.69,589.19z M2118.42,666.56c-4.84,6.65-12.26,9.97-22.23,9.97
				c-9.62,0-16.93-3.22-21.91-9.66c-4.91-6.51-7.37-15.2-7.37-26.07c0-7.06,1.04-13.26,3.12-18.59c2.08-5.4,5.26-9.59,9.55-12.57
				c4.36-3.05,9.91-4.57,16.61-4.57c9.84,0,17.21,3.25,22.12,9.76c4.92,6.44,7.37,15.09,7.37,25.96
				C2125.69,651.33,2123.27,659.91,2118.42,666.56z"/>
			<path class="st0" d="M1881.28,589.19c-8.38-5.05-18.21-7.58-29.49-7.58c-11.01,0-20.71,2.49-29.08,7.48
				c-8.38,4.98-14.92,11.91-19.63,20.77c-4.71,8.86-7.06,19.18-7.06,30.95c0,11.56,2.29,21.81,6.86,30.74
				c4.63,8.86,11.14,15.82,19.52,20.87c8.37,5.05,18.17,7.58,29.39,7.58c11.21,0,21.01-2.49,29.39-7.48
				c8.37-5.05,14.88-12.01,19.52-20.87c4.71-8.93,7.06-19.21,7.06-30.84c0-11.56-2.32-21.77-6.96-30.63
				C1896.17,601.24,1889.66,594.25,1881.28,589.19z M1874.01,666.56c-4.85,6.65-12.25,9.97-22.22,9.97
				c-9.63,0-16.93-3.22-21.91-9.66c-4.92-6.51-7.37-15.2-7.37-26.07c0-7.06,1.04-13.26,3.11-18.59c2.08-5.4,5.26-9.59,9.55-12.57
				c4.36-3.05,9.9-4.57,16.62-4.57c9.83,0,17.2,3.25,22.12,9.76c4.91,6.44,7.37,15.09,7.37,25.96
				C1881.28,651.33,1878.86,659.91,1874.01,666.56z"/>
			<polygon class="st0" points="2198.83,656.07 2198.83,584.73 2174.85,584.73 2174.85,696.88 2194.89,696.88 2248.27,623.67 
				2248.27,696.88 2272.25,696.88 2272.25,584.73 2252.42,584.73 			"/>
			<path class="st0" d="M1438.74,609.76c4.22-3.12,9.59-4.67,16.1-4.67c5.75,0,10.87,1.7,15.37,5.09c4.5,3.32,7.72,8,9.66,14.02
				l24.92-6.75c-2.7-11.08-8.48-19.8-17.34-26.17c-8.79-6.44-19.56-9.66-32.3-9.66c-11.35,0-21.15,2.56-29.39,7.68
				c-8.24,5.05-14.61,12.05-19.11,20.98c-4.43,8.86-6.68,19.04-6.75,30.53c0.07,11.29,2.25,21.39,6.54,30.32
				c4.36,8.93,10.63,15.99,18.8,21.18c8.17,5.12,18.04,7.68,29.6,7.68c12.53,0,23.12-3.05,31.78-9.14
				c8.65-6.16,14.71-14.95,18.17-26.38l-25.54-5.71c-1.94,5.75-4.85,10.14-8.73,13.19c-3.81,3.05-9.03,4.57-15.68,4.57
				c-9.42,0-16.51-3.29-21.29-9.87c-4.78-6.58-7.17-15.2-7.17-25.86c0-6.85,1-12.98,3.01-18.38
				C1431.4,617.03,1434.52,612.8,1438.74,609.76z"/>
			<polygon class="st0" points="1394.02,584.73 1362.76,584.73 1321.74,638.73 1321.74,584.73 1296.4,584.73 1296.19,696.88 
				1321.74,696.88 1321.74,642.88 1364.63,696.88 1397.76,696.88 1350.51,640.81 			"/>
			<polygon class="st0" points="1549.38,656.07 1549.38,584.73 1525.39,584.73 1525.39,696.88 1545.43,696.88 1598.81,623.67 
				1598.81,696.88 1622.8,696.88 1622.8,584.73 1602.96,584.73 			"/>
			<path class="st0" d="M1265.11,602.49c-3.67-7.41-9.31-12.74-16.93-15.99c-7.55-3.25-16.3-4.88-26.27-4.88
				c-13.22,0-23.75,2.87-31.57,8.62c-7.75,5.75-13.01,13.36-15.79,22.85l22.85,7.17c1.87-5.75,5.16-9.8,9.87-12.15
				c4.71-2.35,9.59-3.53,14.64-3.53c8.38,0,14.33,1.83,17.86,5.5c2.93,3.04,4.55,7.57,5,13.42c-4.5,0.67-8.93,1.33-13.2,1.95
				c-7.06,0.97-13.64,2.04-19.73,3.22c-6.02,1.18-11.29,2.49-15.79,3.95c-5.95,2.01-10.8,4.6-14.54,7.79
				c-3.74,3.12-6.51,6.85-8.31,11.22c-1.8,4.29-2.7,9.14-2.7,14.54c0,6.16,1.42,11.8,4.26,16.93c2.91,5.12,7.17,9.24,12.77,12.36
				c5.61,3.05,12.46,4.57,20.56,4.57c10.11,0,18.52-1.87,25.23-5.61c5.22-2.93,9.92-7.17,14.12-12.65v15.14h21.91v-68.85
				c0-4.85-0.21-9.31-0.62-13.4C1268.33,610.48,1267.12,606.43,1265.11,602.49z M1242.05,661.47c-0.83,2.56-2.46,5.3-4.88,8.2
				c-2.35,2.91-5.54,5.37-9.55,7.37c-4.02,2.01-8.86,3.01-14.54,3.01c-3.95,0-7.27-0.62-9.97-1.87c-2.63-1.25-4.64-2.91-6.02-4.98
				c-1.38-2.15-2.08-4.6-2.08-7.37c0-2.42,0.52-4.53,1.56-6.33c1.11-1.8,2.67-3.39,4.67-4.78c2.01-1.38,4.47-2.6,7.37-3.63
				c2.98-0.97,6.4-1.83,10.28-2.6c3.88-0.83,8.51-1.7,13.92-2.6c3.41-0.57,7.41-1.21,11.67-1.89c-0.05,1.93-0.12,4.05-0.25,6.57
				C1244.1,654.65,1243.37,658.29,1242.05,661.47z"/>
		</g>
	</g>
</g>
</svg>
