<?xml version="1.0" encoding="UTF-8"?>
<svg id="Layer_1" data-name="Layer 1" xmlns="http://www.w3.org/2000/svg" viewBox="0 0 2258.86 700">
  <defs>
    <style>
      .cls-1 {
        fill: #3d4671;
      }
    </style>
  </defs>
  <g>
    <path class="cls-1" d="M49.96,299.99c27.59,0,49.96-22.39,49.96-50s-22.37-50-49.96-50S0,222.38,0,249.99s22.36,50,49.96,50Z"/>
    <path class="cls-1" d="M49.96,400.01c27.59,0,49.96-22.39,49.96-50s-22.37-50-49.96-50S0,322.4,0,350.01s22.36,50,49.96,50Z"/>
    <path class="cls-1" d="M49.96,500.01c27.59,0,49.96-22.39,49.96-50s-22.37-50-49.96-50S0,422.39,0,450.01s22.36,50,49.96,50Z"/>
    <path class="cls-1" d="M49.96,599.97c27.59,0,49.96-22.39,49.96-50s-22.37-50-49.96-50S0,522.36,0,549.98s22.36,50,49.96,50Z"/>
    <path class="cls-1" d="M149.87,199.99c27.59,0,49.96-22.39,49.96-50s-22.37-50-49.96-50-49.96,22.39-49.96,50,22.37,50,49.96,50Z"/>
    <path class="cls-1" d="M149.87,299.99c27.59,0,49.96-22.39,49.96-50s-22.37-50-49.96-50-49.96,22.39-49.96,50,22.37,50,49.96,50Z"/>
    <path class="cls-1" d="M149.87,400.01c27.59,0,49.96-22.39,49.96-50s-22.37-50-49.96-50-49.96,22.39-49.96,50,22.37,50,49.96,50Z"/>
    <path class="cls-1" d="M149.87,500.01c27.59,0,49.96-22.39,49.96-50s-22.37-50-49.96-50-49.96,22.39-49.96,50,22.37,50,49.96,50Z"/>
    <path class="cls-1" d="M149.87,599.97c27.59,0,49.96-22.39,49.96-50s-22.37-50-49.96-50-49.96,22.39-49.96,50,22.37,50,49.96,50Z"/>
    <path class="cls-1" d="M149.87,700c27.59,0,49.96-22.39,49.96-50s-22.37-50-49.96-50-49.96,22.39-49.96,50,22.37,50,49.96,50Z"/>
    <path class="cls-1" d="M249.78,199.99c27.59,0,49.96-22.39,49.96-50s-22.37-50-49.96-50-49.96,22.39-49.96,50,22.37,50,49.96,50Z"/>
    <path class="cls-1" d="M249.78,299.99c27.59,0,49.96-22.39,49.96-50s-22.37-50-49.96-50-49.96,22.39-49.96,50,22.37,50,49.96,50Z"/>
    <path class="cls-1" d="M249.78,400.01c27.59,0,49.96-22.39,49.96-50s-22.37-50-49.96-50-49.96,22.39-49.96,50,22.37,50,49.96,50Z"/>
    <path class="cls-1" d="M249.78,500.01c27.59,0,49.96-22.39,49.96-50s-22.37-50-49.96-50-49.96,22.39-49.96,50,22.37,50,49.96,50Z"/>
    <path class="cls-1" d="M249.78,599.97c27.59,0,49.96-22.39,49.96-50s-22.37-50-49.96-50-49.96,22.39-49.96,50,22.37,50,49.96,50Z"/>
    <path class="cls-1" d="M249.78,700c27.59,0,49.96-22.39,49.96-50s-22.37-50-49.96-50-49.96,22.39-49.96,50,22.37,50,49.96,50Z"/>
    <path class="cls-1" d="M349.72,100c27.59,0,49.96-22.39,49.96-50S377.32,0,349.72,0s-49.96,22.39-49.96,50,22.37,50,49.96,50Z"/>
    <path class="cls-1" d="M349.72,199.99c27.59,0,49.96-22.39,49.96-50s-22.37-50-49.96-50-49.96,22.39-49.96,50,22.37,50,49.96,50Z"/>
    <path class="cls-1" d="M349.72,299.99c27.59,0,49.96-22.39,49.96-50s-22.37-50-49.96-50-49.96,22.39-49.96,50,22.37,50,49.96,50Z"/>
    <path class="cls-1" d="M349.72,400.01c27.59,0,49.96-22.39,49.96-50s-22.37-50-49.96-50-49.96,22.39-49.96,50,22.37,50,49.96,50Z"/>
    <path class="cls-1" d="M349.72,500.01c27.59,0,49.96-22.39,49.96-50s-22.37-50-49.96-50-49.96,22.39-49.96,50,22.37,50,49.96,50Z"/>
    <path class="cls-1" d="M349.72,599.97c27.59,0,49.96-22.39,49.96-50s-22.37-50-49.96-50-49.96,22.39-49.96,50,22.37,50,49.96,50Z"/>
    <path class="cls-1" d="M349.72,700c27.59,0,49.96-22.39,49.96-50s-22.37-50-49.96-50-49.96,22.39-49.96,50,22.37,50,49.96,50Z"/>
    <path class="cls-1" d="M449.64,100c27.59,0,49.96-22.39,49.96-50S477.23,0,449.64,0s-49.96,22.39-49.96,50,22.37,50,49.96,50Z"/>
    <path class="cls-1" d="M449.64,199.99c27.59,0,49.96-22.39,49.96-50s-22.37-50-49.96-50-49.96,22.39-49.96,50,22.37,50,49.96,50Z"/>
    <path class="cls-1" d="M449.64,299.99c27.59,0,49.96-22.39,49.96-50s-22.37-50-49.96-50-49.96,22.39-49.96,50,22.37,50,49.96,50Z"/>
    <path class="cls-1" d="M449.64,400.01c27.59,0,49.96-22.39,49.96-50s-22.37-50-49.96-50-49.96,22.39-49.96,50,22.37,50,49.96,50Z"/>
    <path class="cls-1" d="M449.64,500.01c27.59,0,49.96-22.39,49.96-50s-22.37-50-49.96-50-49.96,22.39-49.96,50,22.37,50,49.96,50Z"/>
    <path class="cls-1" d="M449.64,599.97c27.59,0,49.96-22.39,49.96-50s-22.37-50-49.96-50-49.96,22.39-49.96,50,22.37,50,49.96,50Z"/>
    <path class="cls-1" d="M549.58,100c27.59,0,49.96-22.39,49.96-50S577.17,0,549.58,0s-49.96,22.39-49.96,50,22.37,50,49.96,50Z"/>
    <path class="cls-1" d="M549.58,199.99c27.59,0,49.96-22.39,49.96-50s-22.37-50-49.96-50-49.96,22.39-49.96,50,22.37,50,49.96,50Z"/>
    <path class="cls-1" d="M549.58,299.99c27.59,0,49.96-22.39,49.96-50s-22.37-50-49.96-50-49.96,22.39-49.96,50,22.37,50,49.96,50Z"/>
    <path class="cls-1" d="M549.58,400.01c27.59,0,49.96-22.39,49.96-50s-22.37-50-49.96-50-49.96,22.39-49.96,50,22.37,50,49.96,50Z"/>
    <path class="cls-1" d="M549.58,500.01c27.59,0,49.96-22.39,49.96-50s-22.37-50-49.96-50-49.96,22.39-49.96,50,22.37,50,49.96,50Z"/>
    <path class="cls-1" d="M549.58,599.97c27.59,0,49.96-22.39,49.96-50s-22.37-50-49.96-50-49.96,22.39-49.96,50,22.37,50,49.96,50Z"/>
    <path class="cls-1" d="M649.49,100c27.59,0,49.96-22.39,49.96-50S677.08,0,649.49,0s-49.96,22.39-49.96,50,22.37,50,49.96,50Z"/>
    <path class="cls-1" d="M649.49,199.99c27.59,0,49.96-22.39,49.96-50s-22.37-50-49.96-50-49.96,22.39-49.96,50,22.37,50,49.96,50Z"/>
    <path class="cls-1" d="M649.49,299.99c27.59,0,49.96-22.39,49.96-50s-22.37-50-49.96-50-49.96,22.39-49.96,50,22.37,50,49.96,50Z"/>
    <path class="cls-1" d="M649.49,400.01c27.59,0,49.96-22.39,49.96-50s-22.37-50-49.96-50-49.96,22.39-49.96,50,22.37,50,49.96,50Z"/>
    <path class="cls-1" d="M749.38,199.99c27.59,0,49.96-22.39,49.96-50s-22.37-50-49.96-50-49.96,22.39-49.96,50,22.37,50,49.96,50Z"/>
    <path class="cls-1" d="M749.38,299.99c27.59,0,49.96-22.39,49.96-50s-22.37-50-49.96-50-49.96,22.39-49.96,50,22.37,50,49.96,50Z"/>
  </g>
  <g>
    <path class="cls-1" d="M856.16,111.01h20.38v42.96c4.54-.46,7.62-1.63,9.23-3.51,1.61-1.88,4.08-7.11,7.44-15.7,4.22-10.92,8.47-17.72,12.74-20.38,4.22-2.66,11.04-3.99,20.45-3.99,.46,0,1.45-.02,2.96-.07v15.08l-2.89-.07c-4.18,0-7.23,.52-9.16,1.55-1.93,1.03-3.49,2.61-4.68,4.72-1.19,2.11-2.96,6.45-5.3,13.01-1.24,3.49-2.58,6.4-4.03,8.74-1.45,2.34-4,4.54-7.68,6.61,4.54,1.29,8.3,3.88,11.26,7.78,2.96,3.9,6.21,9.41,9.74,16.52l13.77,27.68h-23.96l-12.05-26.09c-.18-.37-.57-1.08-1.17-2.13-.23-.37-1.08-1.95-2.55-4.75-2.62-4.96-4.76-8.06-6.44-9.29-1.68-1.24-4.23-1.88-7.68-1.93v44.2h-20.38V111.01Z"/>
    <path class="cls-1" d="M946.97,138.83h64.79v73.12h-19.28v-57.42h-26.37v32.84c0,8.35-.96,14.22-2.89,17.59-1.93,3.37-4.06,5.59-6.4,6.64s-6.1,1.58-11.29,1.58c-3.08,0-7.14-.41-12.19-1.24v-14.25c.41,0,1.49,.05,3.24,.14,2.02,.14,3.58,.21,4.68,.21,2.62,0,4.22-.86,4.82-2.58,.6-1.72,.9-6.51,.9-14.35v-42.27Z"/>
    <path class="cls-1" d="M1030.83,138.83h18.59v45.92l29.74-45.92h19v73.12h-18.59v-46.75l-30.16,46.75h-18.59v-73.12Z"/>
    <path class="cls-1" d="M1117.23,138.83h19.35v26.78h27.68v-26.78h19.41v73.12h-19.41v-30.71h-27.68v30.71h-19.35v-73.12Z"/>
    <path class="cls-1" d="M1202.67,138.83h18.59v45.92l29.74-45.92h19v73.12h-18.59v-46.75l-30.16,46.75h-18.59v-73.12Z"/>
    <path class="cls-1" d="M1289.07,138.83h19.28v29.88c3.21-.37,5.48-1.35,6.82-2.96,1.33-1.61,2.94-5.12,4.82-10.53,2.48-7.21,5.19-11.82,8.12-13.84,2.94-2.02,6.79-3.03,11.57-3.03,1.47,0,4.02,.12,7.64,.34l.07,12.81c-5.1,0-8.35,.48-9.78,1.45-1.42,1.01-2.96,4.02-4.61,9.02-2.25,6.75-5.49,10.9-9.71,12.46,6.1,1.7,11.27,7,15.49,15.9,.23,.46,.48,.94,.76,1.45l10.81,20.17h-20.79l-9.64-21.14c-1.97-4.27-3.68-7.01-5.13-8.23-1.45-1.22-3.59-1.82-6.44-1.82v31.19h-19.28v-73.12Z"/>
    <path class="cls-1" d="M1374.86,161.13l-17.56-3.17c1.97-7.07,5.37-12.3,10.19-15.7,4.82-3.4,11.98-5.09,21.48-5.09,8.63,0,15.05,1.02,19.28,3.06,4.22,2.04,7.19,4.64,8.92,7.78,1.72,3.14,2.58,8.92,2.58,17.31l-.21,22.58c0,6.43,.31,11.17,.93,14.22,.62,3.05,1.78,6.32,3.48,9.81h-19.14c-.51-1.28-1.12-3.19-1.86-5.71-.32-1.15-.55-1.9-.69-2.27-3.3,3.21-6.84,5.62-10.6,7.23s-7.78,2.41-12.05,2.41c-7.53,0-13.46-2.04-17.8-6.13-4.34-4.08-6.51-9.25-6.51-15.49,0-4.13,.99-7.81,2.96-11.05,1.97-3.24,4.74-5.71,8.3-7.44,3.56-1.72,8.69-3.22,15.39-4.51,9.04-1.7,15.31-3.28,18.79-4.75v-1.93c0-3.72-.92-6.37-2.75-7.95-1.84-1.58-5.3-2.38-10.4-2.38-3.44,0-6.13,.68-8.06,2.03-1.93,1.35-3.49,3.73-4.68,7.13Zm25.89,15.7c-2.48,.83-6.4,1.81-11.77,2.96-5.37,1.15-8.88,2.27-10.53,3.37-2.52,1.79-3.79,4.06-3.79,6.82s1.01,5.05,3.03,7.02c2.02,1.97,4.59,2.96,7.71,2.96,3.49,0,6.82-1.15,9.98-3.44,2.34-1.74,3.88-3.88,4.61-6.4,.5-1.65,.76-4.8,.76-9.43v-3.86Z"/>
    <path class="cls-1" d="M855.2,313.83h18.59v45.92l29.74-45.92h19v73.12h-18.59v-46.75l-30.16,46.75h-18.59v-73.12Z"/>
    <path class="cls-1" d="M941.6,313.83h19.35v26.78h27.68v-26.78h19.42v73.12h-19.42v-30.71h-27.68v30.71h-19.35v-73.12Z"/>
    <path class="cls-1" d="M1026.77,313.83h19.35v26.78h27.68v-26.78h19.42v73.12h-19.42v-30.71h-27.68v30.71h-19.35v-73.12Z"/>
    <path class="cls-1" d="M1108.21,349.35c0-6.43,1.58-12.64,4.75-18.66,3.17-6.01,7.65-10.6,13.46-13.77,5.81-3.17,12.29-4.75,19.45-4.75,11.06,0,20.13,3.59,27.2,10.77,7.07,7.18,10.6,16.26,10.6,27.23s-3.57,20.23-10.71,27.5c-7.14,7.27-16.12,10.91-26.95,10.91-6.7,0-13.09-1.51-19.17-4.54-6.08-3.03-10.71-7.47-13.87-13.32-3.17-5.85-4.75-12.98-4.75-21.38Zm19.83,1.03c0,7.25,1.72,12.81,5.16,16.66,3.44,3.86,7.69,5.78,12.74,5.78s9.28-1.93,12.7-5.78c3.42-3.86,5.13-9.45,5.13-16.8s-1.71-12.67-5.13-16.52c-3.42-3.86-7.65-5.78-12.7-5.78s-9.29,1.93-12.74,5.78c-3.44,3.86-5.16,9.41-5.16,16.66Z"/>
    <path class="cls-1" d="M1199.02,313.83h42.34c8.68,0,15.17,1.58,19.48,4.75,4.31,3.17,6.47,7.94,6.47,14.32,0,4.09-1.18,7.64-3.55,10.67-2.36,3.03-5.34,5.05-8.92,6.06,5.05,1.24,8.81,3.56,11.29,6.95,2.48,3.4,3.72,7.12,3.72,11.15,0,5.69-2.09,10.32-6.27,13.87-4.18,3.56-10.35,5.34-18.52,5.34h-46.06v-73.12Zm19.48,30.36h12.46c6.01,0,10.36-.76,13.05-2.27,2.68-1.51,4.03-3.9,4.03-7.16,0-3.07-1.25-5.27-3.75-6.58-2.5-1.31-6.94-1.96-13.32-1.96h-12.46v17.97Zm0,30.36h15.29c5.51,0,9.52-.67,12.05-2,2.52-1.33,3.79-3.72,3.79-7.16s-1.45-6.05-4.34-7.4-8.51-2.03-16.87-2.03h-9.91v18.59Z"/>
    <path class="cls-1" d="M1298.09,336.13l-17.56-3.17c1.97-7.07,5.37-12.3,10.19-15.7,4.82-3.4,11.98-5.09,21.48-5.09,8.63,0,15.05,1.02,19.28,3.06,4.22,2.04,7.19,4.64,8.92,7.78,1.72,3.14,2.58,8.92,2.58,17.31l-.21,22.58c0,6.43,.31,11.17,.93,14.22,.62,3.05,1.78,6.32,3.48,9.81h-19.14c-.51-1.29-1.12-3.19-1.86-5.71-.32-1.15-.55-1.9-.69-2.27-3.3,3.21-6.84,5.62-10.6,7.23-3.76,1.61-7.78,2.41-12.05,2.41-7.53,0-13.46-2.04-17.8-6.13-4.34-4.08-6.51-9.25-6.51-15.49,0-4.13,.99-7.81,2.96-11.05,1.97-3.24,4.74-5.71,8.3-7.44,3.56-1.72,8.69-3.22,15.39-4.51,9.04-1.7,15.31-3.28,18.79-4.75v-1.93c0-3.72-.92-6.37-2.75-7.95-1.84-1.58-5.3-2.38-10.4-2.38-3.44,0-6.13,.68-8.06,2.03-1.93,1.35-3.49,3.73-4.68,7.13Zm25.89,15.7c-2.48,.83-6.4,1.81-11.77,2.96-5.37,1.15-8.88,2.27-10.53,3.37-2.52,1.79-3.79,4.06-3.79,6.82s1.01,5.05,3.03,7.02c2.02,1.97,4.59,2.96,7.71,2.96,3.49,0,6.82-1.15,9.98-3.44,2.34-1.74,3.88-3.88,4.61-6.4,.5-1.65,.76-4.8,.76-9.43v-3.86Z"/>
    <path class="cls-1" d="M1361.36,313.83h19.35v57.49h27.61v-57.49h19.35v57.49h7.64v34.91h-15.63v-19.28h-58.31v-73.12Z"/>
    <path class="cls-1" d="M1448.25,313.83h18.59v45.92l29.74-45.92h19v73.12h-18.59v-46.75l-30.16,46.75h-18.59v-73.12Z"/>
    <path class="cls-1" d="M1530.94,349.35c0-6.43,1.58-12.64,4.75-18.66,3.17-6.01,7.65-10.6,13.46-13.77,5.81-3.17,12.29-4.75,19.45-4.75,11.06,0,20.13,3.59,27.2,10.77,7.07,7.18,10.6,16.26,10.6,27.23s-3.57,20.23-10.71,27.5c-7.14,7.27-16.12,10.91-26.95,10.91-6.7,0-13.09-1.51-19.17-4.54-6.08-3.03-10.71-7.47-13.87-13.32-3.17-5.85-4.75-12.98-4.75-21.38Zm19.83,1.03c0,7.25,1.72,12.81,5.16,16.66,3.44,3.86,7.69,5.78,12.74,5.78s9.28-1.93,12.7-5.78c3.42-3.86,5.13-9.45,5.13-16.8s-1.71-12.67-5.13-16.52c-3.42-3.86-7.65-5.78-12.7-5.78s-9.29,1.93-12.74,5.78c-3.44,3.86-5.16,9.41-5.16,16.66Z"/>
    <path class="cls-1" d="M1620.78,313.83h19.35v26.78h27.68v-26.78h19.41v73.12h-19.41v-30.71h-27.68v30.71h-19.35v-73.12Z"/>
    <path class="cls-1" d="M1705.95,313.83h19.35v26.78h27.68v-26.78h19.41v73.12h-19.41v-30.71h-27.68v30.71h-19.35v-73.12Z"/>
    <path class="cls-1" d="M1787.39,349.35c0-6.43,1.58-12.64,4.75-18.66,3.17-6.01,7.65-10.6,13.46-13.77,5.81-3.17,12.29-4.75,19.45-4.75,11.06,0,20.13,3.59,27.2,10.77,7.07,7.18,10.6,16.26,10.6,27.23s-3.57,20.23-10.71,27.5c-7.14,7.27-16.12,10.91-26.95,10.91-6.7,0-13.09-1.51-19.17-4.54-6.08-3.03-10.71-7.47-13.87-13.32-3.17-5.85-4.75-12.98-4.75-21.38Zm19.83,1.03c0,7.25,1.72,12.81,5.16,16.66,3.44,3.86,7.69,5.78,12.74,5.78s9.28-1.93,12.7-5.78c3.42-3.86,5.13-9.45,5.13-16.8s-1.71-12.67-5.13-16.52c-3.42-3.86-7.65-5.78-12.7-5.78s-9.29,1.93-12.74,5.78c-3.44,3.86-5.16,9.41-5.16,16.66Z"/>
    <path class="cls-1" d="M1877.52,313.83h18.59v45.92l29.74-45.92h19v73.12h-18.59v-46.75l-30.16,46.75h-18.59v-73.12Zm46.33-29.67h9.43c-.55,6.24-2.74,11.14-6.58,14.7-3.83,3.56-8.8,5.34-14.91,5.34s-11.07-1.78-14.91-5.34c-3.83-3.56-6.02-8.46-6.58-14.7h9.43c.32,3.26,1.47,5.73,3.44,7.4,1.97,1.68,4.84,2.51,8.61,2.51s6.63-.84,8.61-2.51c1.97-1.67,3.12-4.14,3.44-7.4Z"/>
    <path class="cls-1" d="M854.92,488.83h19.35v26.78h27.68v-26.78h19.42v73.12h-19.42v-30.71h-27.68v30.71h-19.35v-73.12Z"/>
    <path class="cls-1" d="M983.18,538.67l19.28,3.24c-2.48,7.07-6.39,12.45-11.74,16.15-5.35,3.7-12.04,5.54-20.07,5.54-12.71,0-22.12-4.15-28.23-12.46-4.82-6.66-7.23-15.05-7.23-25.2,0-12.12,3.17-21.61,9.5-28.47,6.33-6.86,14.34-10.29,24.03-10.29,10.88,0,19.46,3.59,25.75,10.77,6.29,7.18,9.29,18.19,9.02,33.01h-48.47c.14,5.74,1.7,10.2,4.68,13.39,2.98,3.19,6.7,4.79,11.15,4.79,3.03,0,5.58-.83,7.64-2.48s3.63-4.31,4.68-7.99Zm1.1-19.55c-.14-5.6-1.58-9.86-4.34-12.77-2.75-2.91-6.1-4.37-10.05-4.37-4.22,0-7.71,1.54-10.46,4.61-2.75,3.08-4.11,7.25-4.06,12.53h28.92Z"/>
    <path class="cls-1" d="M1018.78,488.83h18.59v45.92l29.74-45.92h19v73.12h-18.59v-46.75l-30.16,46.75h-18.59v-73.12Zm46.33-29.67h9.43c-.55,6.24-2.74,11.14-6.58,14.7-3.83,3.56-8.8,5.34-14.91,5.34s-11.07-1.78-14.91-5.34c-3.83-3.56-6.02-8.46-6.58-14.7h9.43c.32,3.26,1.47,5.73,3.44,7.4,1.97,1.68,4.84,2.51,8.61,2.51s6.63-.84,8.61-2.51c1.97-1.67,3.12-4.14,3.44-7.4Z"/>
    <path class="cls-1" d="M1105.39,488.83h18.04v10.74c2.34-3.67,5.51-6.65,9.5-8.95,3.99-2.29,8.42-3.44,13.29-3.44,8.49,0,15.7,3.33,21.62,9.98s8.88,15.93,8.88,27.81-2.98,21.7-8.95,28.47c-5.97,6.77-13.2,10.16-21.69,10.16-4.04,0-7.7-.8-10.98-2.41-3.28-1.61-6.74-4.36-10.36-8.26v36.83h-19.35v-100.93Zm19.14,35.32c0,8.22,1.63,14.29,4.89,18.21,3.26,3.92,7.23,5.89,11.91,5.89s8.24-1.8,11.22-5.4c2.98-3.6,4.47-9.51,4.47-17.73,0-7.66-1.54-13.36-4.61-17.07-3.08-3.72-6.88-5.58-11.43-5.58s-8.65,1.82-11.77,5.47c-3.12,3.65-4.68,9.05-4.68,16.21Z"/>
    <path class="cls-1" d="M1187.59,524.35c0-6.43,1.58-12.64,4.75-18.66,3.17-6.01,7.65-10.6,13.46-13.77,5.81-3.17,12.29-4.75,19.45-4.75,11.06,0,20.13,3.59,27.2,10.77,7.07,7.18,10.6,16.26,10.6,27.23s-3.57,20.23-10.71,27.5c-7.14,7.28-16.12,10.91-26.95,10.91-6.7,0-13.09-1.51-19.17-4.54-6.08-3.03-10.71-7.47-13.87-13.32-3.17-5.85-4.75-12.98-4.75-21.38Zm19.83,1.03c0,7.25,1.72,12.81,5.16,16.66,3.44,3.86,7.69,5.78,12.74,5.78s9.28-1.93,12.7-5.78c3.42-3.86,5.13-9.46,5.13-16.8s-1.71-12.67-5.13-16.52c-3.42-3.86-7.65-5.78-12.7-5.78s-9.29,1.93-12.74,5.78c-3.44,3.86-5.16,9.41-5.16,16.66Z"/>
    <path class="cls-1" d="M1277.65,488.83h18.04v10.74c2.34-3.67,5.51-6.65,9.5-8.95,3.99-2.29,8.42-3.44,13.29-3.44,8.49,0,15.7,3.33,21.62,9.98s8.88,15.93,8.88,27.81-2.98,21.7-8.95,28.47c-5.97,6.77-13.2,10.16-21.69,10.16-4.04,0-7.7-.8-10.98-2.41-3.28-1.61-6.74-4.36-10.36-8.26v36.83h-19.35v-100.93Zm19.14,35.32c0,8.22,1.63,14.29,4.89,18.21,3.26,3.92,7.23,5.89,11.91,5.89s8.24-1.8,11.22-5.4c2.98-3.6,4.47-9.51,4.47-17.73,0-7.66-1.54-13.36-4.61-17.07-3.08-3.72-6.88-5.58-11.43-5.58s-8.65,1.82-11.77,5.47c-3.12,3.65-4.68,9.05-4.68,16.21Z"/>
    <path class="cls-1" d="M1406.67,538.67l19.28,3.24c-2.48,7.07-6.39,12.45-11.74,16.15-5.35,3.7-12.04,5.54-20.07,5.54-12.71,0-22.12-4.15-28.23-12.46-4.82-6.66-7.23-15.05-7.23-25.2,0-12.12,3.17-21.61,9.5-28.47,6.33-6.86,14.34-10.29,24.03-10.29,10.88,0,19.46,3.59,25.75,10.77,6.29,7.18,9.29,18.19,9.02,33.01h-48.47c.14,5.74,1.7,10.2,4.68,13.39,2.98,3.19,6.7,4.79,11.15,4.79,3.03,0,5.58-.83,7.64-2.48s3.62-4.31,4.68-7.99Zm1.1-19.55c-.14-5.6-1.58-9.86-4.34-12.77-2.75-2.91-6.11-4.37-10.05-4.37-4.22,0-7.71,1.54-10.46,4.61-2.75,3.08-4.11,7.25-4.06,12.53h28.92Z"/>
    <path class="cls-1" d="M1457.2,511.13l-17.56-3.17c1.97-7.07,5.37-12.3,10.19-15.7,4.82-3.4,11.98-5.09,21.48-5.09,8.63,0,15.05,1.02,19.28,3.06,4.22,2.04,7.19,4.64,8.92,7.78,1.72,3.14,2.58,8.92,2.58,17.32l-.21,22.58c0,6.43,.31,11.17,.93,14.22,.62,3.05,1.78,6.32,3.48,9.81h-19.14c-.51-1.28-1.12-3.19-1.86-5.71-.32-1.15-.55-1.9-.69-2.27-3.3,3.21-6.84,5.62-10.6,7.23-3.76,1.61-7.78,2.41-12.05,2.41-7.53,0-13.46-2.04-17.8-6.13-4.34-4.08-6.51-9.25-6.51-15.49,0-4.13,.99-7.81,2.96-11.05,1.97-3.24,4.74-5.71,8.3-7.44,3.56-1.72,8.69-3.22,15.39-4.51,9.04-1.7,15.31-3.28,18.79-4.75v-1.93c0-3.72-.92-6.37-2.75-7.95-1.84-1.58-5.3-2.38-10.4-2.38-3.44,0-6.13,.68-8.06,2.03-1.93,1.35-3.49,3.73-4.68,7.13Zm25.89,15.7c-2.48,.83-6.4,1.81-11.77,2.96-5.37,1.15-8.88,2.27-10.53,3.37-2.52,1.79-3.79,4.06-3.79,6.82s1.01,5.05,3.03,7.02c2.02,1.97,4.59,2.96,7.71,2.96,3.49,0,6.82-1.15,9.98-3.44,2.34-1.74,3.88-3.88,4.61-6.4,.5-1.65,.76-4.8,.76-9.43v-3.86Z"/>
    <path class="cls-1" d="M1576.03,458.67h13.15c-.41,5.83-1.94,10.25-4.58,13.25-2.64,3.01-9.15,4.51-19.52,4.51-1.24,0-2.48-.02-3.72-.07h-2.48c-6.15,0-11.15,.68-15.01,2.03-3.86,1.35-7.01,3.98-9.47,7.88-2.46,3.9-3.73,10.19-3.82,18.87,2.85-5.37,6.53-9.39,11.05-12.05,4.52-2.66,9.9-3.99,16.15-3.99,9.59,0,17.72,3.73,24.37,11.19,6.66,7.46,9.98,16.1,9.98,25.92s-3.5,19.03-10.5,26.37c-7,7.34-16.14,11.02-27.44,11.02-7.76,0-14.57-1.86-20.45-5.58-5.88-3.72-10.08-8.8-12.6-15.25-2.53-6.45-3.79-17.13-3.79-32.05,0-17.53,3.22-30.13,9.67-37.8,6.45-7.67,17.71-11.5,33.77-11.5h9.78c2.71,0,4.52-.92,5.44-2.75Zm-38.97,67.26c0,6.66,1.66,11.92,4.99,15.8,3.33,3.88,7.4,5.82,12.22,5.82,5.19,0,9.44-2.01,12.77-6.02,3.33-4.02,4.99-9.19,4.99-15.53s-1.69-11.69-5.06-15.66c-3.37-3.97-7.54-5.96-12.5-5.96s-8.93,1.95-12.32,5.85c-3.4,3.9-5.09,9.13-5.09,15.7Z"/>
    <path class="cls-1" d="M1607.77,488.83h18.59v45.92l29.74-45.92h19v73.12h-18.59v-46.75l-30.16,46.75h-18.59v-73.12Z"/>
    <path class="cls-1" d="M1700.16,488.83h64.79v73.12h-19.28v-57.42h-26.37v32.84c0,8.35-.96,14.22-2.89,17.59-1.93,3.37-4.06,5.59-6.4,6.64-2.34,1.05-6.1,1.58-11.29,1.58-3.08,0-7.14-.41-12.19-1.24v-14.25c.41,0,1.49,.05,3.24,.14,2.02,.14,3.58,.21,4.68,.21,2.62,0,4.22-.86,4.82-2.58,.6-1.72,.9-6.51,.9-14.35v-42.27Z"/>
    <path class="cls-1" d="M1784.02,488.83h18.59v45.92l29.74-45.92h19v73.12h-18.59v-46.75l-30.16,46.75h-18.59v-73.12Z"/>
    <path class="cls-1" d="M1862.51,488.83h66.16v15.63h-23.41v57.49h-19.35v-57.49h-23.41v-15.63Z"/>
    <path class="cls-1" d="M1954.69,511.13l-17.56-3.17c1.97-7.07,5.37-12.3,10.19-15.7,4.82-3.4,11.98-5.09,21.48-5.09,8.63,0,15.05,1.02,19.28,3.06,4.22,2.04,7.19,4.64,8.92,7.78,1.72,3.14,2.58,8.92,2.58,17.32l-.21,22.58c0,6.43,.31,11.17,.93,14.22,.62,3.05,1.78,6.32,3.48,9.81h-19.14c-.51-1.28-1.12-3.19-1.86-5.71-.32-1.15-.55-1.9-.69-2.27-3.3,3.21-6.84,5.62-10.6,7.23-3.76,1.61-7.78,2.41-12.05,2.41-7.53,0-13.46-2.04-17.8-6.13-4.34-4.08-6.51-9.25-6.51-15.49,0-4.13,.99-7.81,2.96-11.05,1.97-3.24,4.74-5.71,8.3-7.44,3.56-1.72,8.69-3.22,15.39-4.51,9.04-1.7,15.31-3.28,18.79-4.75v-1.93c0-3.72-.92-6.37-2.75-7.95-1.84-1.58-5.3-2.38-10.4-2.38-3.44,0-6.13,.68-8.06,2.03-1.93,1.35-3.49,3.73-4.68,7.13Zm25.89,15.7c-2.48,.83-6.4,1.81-11.77,2.96-5.37,1.15-8.88,2.27-10.53,3.37-2.52,1.79-3.79,4.06-3.79,6.82s1.01,5.05,3.03,7.02c2.02,1.97,4.59,2.96,7.71,2.96,3.49,0,6.82-1.15,9.98-3.44,2.34-1.74,3.88-3.88,4.61-6.4,.5-1.65,.76-4.8,.76-9.43v-3.86Z"/>
    <path class="cls-1" d="M2017.97,488.83h19.35v57.49h27.61v-57.49h19.35v57.49h7.64v34.91h-15.63v-19.28h-58.31v-73.12Z"/>
    <path class="cls-1" d="M2104.85,488.83h18.59v45.92l29.74-45.92h19v73.12h-18.59v-46.75l-30.16,46.75h-18.59v-73.12Z"/>
    <path class="cls-1" d="M2191.53,488.83h18.59v45.92l29.74-45.92h19v73.12h-18.59v-46.75l-30.16,46.75h-18.59v-73.12Z"/>
  </g>
</svg>